<svg xmlns="http://www.w3.org/2000/svg" data-name="Layer 1" viewBox="0 0 64 64" id="wash-tshirt"><path d="M32,3.14A7.25,7.25,0,0,0,38,0a30.68,30.68,0,0,1-6,.62A30.5,30.5,0,0,1,26,0,7.22,7.22,0,0,0,32,3.14Z"></path><path d="M17.59 17.39a.51.51 0 0 1 .9.29l0 .49v18h27l0-18.5a.54.54 0 0 1 .35-.47.51.51 0 0 1 .55.14l3.46 4.23L57 17.53C55.56 13.76 49.8 5.42 48.88 4.08 45.29 3.56 40.69.9 39.22 0A8.26 8.26 0 0 1 32 4.16 8.23 8.23 0 0 1 24.78 0c-1.47.9-6.06 3.56-9.66 4.08C14.19 5.42 8.45 13.76 7 17.53l7.16 4.09zM60.77 37.23H3.23a1.6 1.6 0 0 0 0 3.18h.66l5 19.8A5 5 0 0 0 13.77 64H50.23a5 5 0 0 0 4.87-3.79l5-19.8h.66a1.6 1.6 0 0 0 0-3.18zM18.57 56.7a2.65 2.65 0 1 1 2.65-2.65A2.65 2.65 0 0 1 18.57 56.7zm9.82 4.15A1.62 1.62 0 1 1 30 59.23 1.62 1.62 0 0 1 28.39 60.85zm9.66-3.75a2 2 0 1 1 2-2A2 2 0 0 1 38.05 57.1zm9.22 1.83a1.39 1.39 0 1 1 1.39-1.39A1.39 1.39 0 0 1 47.27 58.93zm9.52-12.85l-.09.34c-16.27 5.8-20.52 2.8-27.39 1-4.57-1.23-10.29-1.93-21.49.83l-2-7.8h52.4z"></path></svg>