<svg xmlns="http://www.w3.org/2000/svg" width="384pt" height="384pt" viewBox="0 0 384 384" version="1.1" class="iconadda">
<g>
<g id="Check_free_icon_oTWsEyR-0"><path style=" stroke:none;fill-rule:nonzero;fill:#fdd1a4;fill-opacity:1;" d="M 110.007812 123.921875 L 110.007812 259.191406 C 110.007812 260.53125 110.722656 261.769531 111.882812 262.4375 L 229.03125 330.074219 C 230.191406 330.742188 231.621094 330.742188 232.78125 330.074219 L 349.929688 262.4375 C 351.089844 261.769531 351.804688 260.53125 351.804688 259.191406 L 351.804688 123.921875 C 351.804688 122.582031 351.089844 121.34375 349.929688 120.671875 L 232.78125 53.039062 C 231.621094 52.367188 230.191406 52.367188 229.03125 53.039062 L 111.882812 120.671875 C 110.722656 121.34375 110.007812 122.582031 110.007812 123.921875 " />
</g><g id="Check_free_icon_oTWsEyR-1"><path style=" stroke:none;fill-rule:nonzero;fill:#febc87;fill-opacity:1;" d="M 255 198.542969 C 255.777344 198.542969 256.546875 198.335938 257.222656 197.949219 L 351.804688 143.34375 L 351.804688 123.925781 C 351.804688 123.257812 351.625 122.613281 351.300781 122.050781 L 233.128906 190.273438 C 232.453125 190.664062 231.6875 190.867188 230.90625 190.867188 L 230.90625 330.574219 C 231.554688 330.574219 232.203125 330.40625 232.78125 330.070312 L 255 317.246094 Z M 255 198.542969 " />
</g><g id="Check_free_icon_oTWsEyR-2"><path style="fill:none;stroke-width:15;stroke-linecap:round;stroke-linejoin:round;stroke:rgb(0%,0%,0%);stroke-opacity:1;stroke-miterlimit:10;" d="M 0.000318392 0.000887522 L 0.000318392 49.777078 L 0.000318392 49.77187 C 0.000318392 51.558333 -0.952809 53.20938 -2.499689 54.105216 L -158.698073 144.287777 L -158.698073 144.282569 C -160.244952 145.178405 -162.151208 145.178405 -163.698087 144.282569 L -319.896471 54.100008 L -319.896471 54.105216 C -321.443351 53.20938 -322.396478 51.558333 -322.396478 49.77187 L -322.396478 -130.588044 C -322.396478 -132.374508 -321.443351 -134.025555 -319.896471 -134.916182 L -163.698087 -225.098743 C -162.151208 -225.989371 -160.244952 -225.989371 -158.698073 -225.098743 L -2.499689 -134.916182 C -0.952809 -134.025555 0.000318392 -132.374508 0.000318392 -130.588044 L 0.000318392 -34.999217 " transform="matrix(0.749998,0,0,-0.749998,351.804449,161.250666)" />
</g><g id="Check_free_icon_oTWsEyR-3"><path style=" stroke:none;fill-rule:nonzero;fill:#d78955;fill-opacity:1;" d="M 228.6875 190.273438 L 116.675781 125.605469 C 113.714844 123.894531 113.714844 119.621094 116.675781 117.910156 L 111.886719 120.675781 L 111.886719 120.671875 C 110.726562 121.34375 110.011719 122.582031 110.011719 123.921875 L 110.011719 258.789062 C 110.011719 260.378906 110.859375 261.84375 112.234375 262.636719 L 229.03125 330.074219 C 229.601562 330.402344 230.25 330.574219 230.90625 330.574219 L 230.90625 190.867188 C 230.128906 190.867188 229.359375 190.664062 228.6875 190.273438 " />
</g><g id="Check_free_icon_oTWsEyR-4"><path style=" stroke:none;fill-rule:nonzero;fill:#c57945;fill-opacity:1;" d="M 135.574219 247.0625 C 134.199219 246.269531 133.351562 244.800781 133.351562 243.214844 L 133.351562 135.230469 L 116.675781 125.601562 C 113.714844 123.890625 113.714844 119.617188 116.675781 117.90625 L 111.886719 120.671875 C 110.726562 121.34375 110.011719 122.582031 110.011719 123.921875 L 110.011719 258.789062 C 110.011719 260.378906 110.855469 261.84375 112.230469 262.640625 L 229.03125 330.074219 C 229.601562 330.402344 230.25 330.574219 230.90625 330.574219 L 230.90625 302.101562 Z M 135.574219 247.0625 " />
</g><g id="Check_free_icon_oTWsEyR-5"><path style="fill:none;stroke-width:15;stroke-linecap:round;stroke-linejoin:round;stroke:rgb(0%,0%,0%);stroke-opacity:1;stroke-miterlimit:10;" d="M 0.00257785 -0.00114479 L -149.346827 86.223071 C -153.294755 88.504328 -153.294755 94.202262 -149.346827 96.483519 L -155.732263 92.796008 L -155.732263 92.801216 C -157.279142 91.90538 -158.23227 90.254333 -158.23227 88.46787 L -158.23227 -91.355584 C -158.23227 -93.475382 -157.102058 -95.428513 -155.268719 -96.485808 L 0.460913 -186.402743 C 1.221331 -186.840245 2.085917 -187.069412 2.96092 -187.069412 L 2.96092 -0.792814 C 1.924459 -0.792814 0.898414 -0.52198 0.00257785 -0.00114479 Z M 0.00257785 -0.00114479 " transform="matrix(0.749998,0,0,-0.749998,228.685567,190.272579)" />
</g><g id="Check_free_icon_oTWsEyR-6"><path style=" stroke:none;fill-rule:nonzero;fill:#f5a96c;fill-opacity:1;" d="M 233.128906 190.273438 L 351.300781 122.046875 C 350.972656 121.476562 350.5 121.003906 349.929688 120.671875 L 232.78125 53.039062 C 231.621094 52.367188 230.191406 52.367188 229.03125 53.039062 L 116.675781 117.910156 C 113.714844 119.621094 113.714844 123.894531 116.675781 125.605469 L 228.6875 190.273438 C 230.058594 191.066406 231.753906 191.066406 233.128906 190.273438 " />
</g><g id="Check_free_icon_oTWsEyR-7"><path style="fill:none;stroke-width:15;stroke-linecap:round;stroke-linejoin:round;stroke:rgb(0%,0%,0%);stroke-opacity:1;stroke-miterlimit:10;" d="M -0.000529458 -0.00114479 L 157.562441 90.967877 C 157.12494 91.728296 156.49473 92.358506 155.734311 92.801216 L -0.464073 182.978569 C -2.010952 183.874405 -3.917208 183.874405 -5.464087 182.978569 L -155.271827 96.483519 C -159.219755 94.202262 -159.219755 88.504328 -155.271827 86.223071 L -5.922422 -0.00114479 C -4.094292 -1.05844 -1.833868 -1.05844 -0.000529458 -0.00114479 Z M -0.000529458 -0.00114479 " transform="matrix(0.749998,0,0,-0.749998,233.129303,190.272579)" />
</g><g id="Check_free_icon_oTWsEyR-8"><path style="fill-rule:nonzero;fill:#b5c3c0;fill-opacity:1;stroke-width:15;stroke-linecap:round;stroke-linejoin:round;stroke:rgb(0%,0%,0%);stroke-opacity:1;stroke-miterlimit:10;" d="M -0.000170629 -0.000254514 L 70.859416 84.781249 L 90.317808 68.515575 L 19.463429 -16.265928 Z M -0.000170629 -0.000254514 " transform="matrix(0.749998,0,0,-0.749998,51.293097,207.355278)" />
</g><g id="Check_free_icon_oTWsEyR-9"><path style=" stroke:none;fill-rule:nonzero;fill:#798d98;fill-opacity:1;" d="M 7.25 259.582031 L 22.308594 272.167969 C 23.230469 272.9375 24.421875 273.3125 25.617188 273.203125 C 26.816406 273.097656 27.917969 272.519531 28.691406 271.597656 L 75.105469 216.0625 C 75.875 215.140625 76.246094 213.949219 76.140625 212.753906 C 76.035156 211.558594 75.457031 210.453125 74.535156 209.683594 L 59.476562 197.097656 L 59.472656 197.097656 C 57.554688 195.492188 54.699219 195.746094 53.09375 197.667969 L 6.679688 253.203125 C 5.074219 255.121094 5.332031 257.976562 7.25 259.582031 " />
</g><g id="Check_free_icon_oTWsEyR-10"><path style=" stroke:none;fill-rule:nonzero;fill:#596b77;fill-opacity:1;" d="M 55.71875 214.695312 C 56.488281 213.773438 57.59375 213.195312 58.789062 213.085938 C 59.988281 212.980469 61.175781 213.355469 62.097656 214.125 L 70.710938 221.320312 L 75.105469 216.0625 C 75.875 215.140625 76.246094 213.953125 76.140625 212.753906 C 76.03125 211.558594 75.453125 210.453125 74.535156 209.683594 L 59.472656 197.097656 C 57.554688 195.492188 54.699219 195.75 53.09375 197.667969 L 6.679688 253.203125 C 5.074219 255.121094 5.332031 257.976562 7.25 259.582031 L 13.699219 264.972656 Z M 55.71875 214.695312 " />
</g><g id="Check_free_icon_oTWsEyR-11"><path style="fill:none;stroke-width:15;stroke-linecap:round;stroke-linejoin:round;stroke:rgb(0%,0%,0%);stroke-opacity:1;stroke-miterlimit:10;" d="M 0.000695553 0.00112073 L 20.078881 -16.780179 C 21.308051 -17.806224 22.896597 -18.306226 24.490352 -18.160392 C 26.089315 -18.019766 27.55807 -17.248931 28.589323 -16.01976 L 90.474924 58.027336 C 91.500969 59.256506 91.995762 60.845053 91.855137 62.438807 C 91.714511 64.032562 90.943676 65.506525 89.714505 66.53257 L 69.63632 83.31387 L 69.631112 83.31387 C 67.073813 85.454501 63.26651 85.115958 61.125878 82.553451 L -0.759723 8.506354 C -2.900355 5.949055 -2.556604 2.141752 0.000695553 0.00112073 Z M 0.000695553 0.00112073 " transform="matrix(0.749998,0,0,-0.749998,7.249478,259.582872)" />
</g><g id="Check_free_icon_oTWsEyR-12"><path style=" stroke:none;fill-rule:nonzero;fill:#0493fc;fill-opacity:1;" d="M 80.792969 91.542969 C 59.136719 117.457031 62.585938 156.015625 88.5 177.671875 C 114.414062 199.328125 152.972656 195.878906 174.628906 169.964844 C 196.285156 144.054688 192.835938 105.492188 166.921875 83.835938 C 141.011719 62.179688 102.449219 65.628906 80.792969 91.542969 " />
</g><g id="Check_free_icon_oTWsEyR-13"><path style="fill:none;stroke-width:15;stroke-linecap:round;stroke-linejoin:round;stroke:rgb(0%,0%,0%);stroke-opacity:1;stroke-miterlimit:10;" d="M 0.00128024 -0.00112641 C -28.873806 -34.553313 -24.274834 -85.964925 10.277353 -114.840011 C 44.829539 -143.715098 96.241151 -139.116125 125.116237 -104.563939 C 153.991324 -70.016961 149.392352 -18.60014 114.840165 10.274946 C 80.293187 39.150032 28.876367 34.55106 0.00128024 -0.00112641 Z M 0.00128024 -0.00112641 " transform="matrix(0.749998,0,0,-0.749998,80.792009,91.542124)" />
</g><g id="Check_free_icon_oTWsEyR-14"><path style=" stroke:none;fill-rule:nonzero;fill:#eaf5ff;fill-opacity:1;" d="M 96.21875 104.4375 C 81.683594 121.828125 84 147.710938 101.390625 162.246094 C 118.78125 176.78125 144.664062 174.464844 159.199219 157.074219 C 173.734375 139.683594 171.417969 113.800781 154.027344 99.265625 C 136.636719 84.730469 110.753906 87.046875 96.21875 104.4375 " />
</g><g id="Check_free_icon_oTWsEyR-15"><path style=" stroke:none;fill-rule:nonzero;fill:#d7ecfe;fill-opacity:1;" d="M 124.972656 162.246094 C 107.582031 147.710938 105.265625 121.828125 119.800781 104.4375 L 119.800781 104.433594 C 124.949219 98.257812 131.808594 93.738281 139.515625 91.441406 C 124.265625 86.871094 107.078125 91.445312 96.21875 104.433594 C 81.683594 121.828125 84 147.710938 101.390625 162.246094 C 112.367188 171.421875 126.726562 173.875 139.484375 170.066406 C 134.164062 168.472656 129.226562 165.808594 124.972656 162.246094 " />
</g><g id="Check_free_icon_oTWsEyR-16"><path style="fill:none;stroke-width:15;stroke-linecap:round;stroke-linejoin:round;stroke:rgb(0%,0%,0%);stroke-opacity:1;stroke-miterlimit:10;" d="M 0.00195561 0.00106084 C -3.201179 9.620881 -9.018905 18.157365 -16.810595 24.646968 C -39.998164 44.027234 -74.508684 40.938683 -93.88895 17.751114 C -113.269216 -5.436455 -110.180665 -39.946975 -86.993096 -59.327241 C -63.805527 -78.707508 -29.295007 -75.618957 -9.914741 -52.431388 C -5.597019 -47.275122 -2.274093 -41.363646 -0.10742 -34.999044 " transform="matrix(0.749998,0,0,-0.749998,166.635252,117.750796)" />
</g><g id="Check_free_icon_oTWsEyR-17"><path style=" stroke:none;fill-rule:nonzero;fill:#fdd403;fill-opacity:1;" d="M 299.398438 331.464844 L 374.5625 331.464844 C 376.667969 331.464844 378.375 329.757812 378.375 327.652344 L 378.375 214.457031 L 378.375 214.460938 C 378.375 212.355469 376.667969 210.648438 374.5625 210.648438 L 299.398438 210.648438 C 297.292969 210.648438 295.585938 212.355469 295.585938 214.460938 L 295.585938 327.652344 C 295.585938 329.757812 297.292969 331.464844 299.398438 331.464844 " />
</g><g id="Check_free_icon_oTWsEyR-18"><path style=" stroke:none;fill-rule:nonzero;fill:#fac601;fill-opacity:1;" d="M 319.210938 327.65625 L 319.210938 214.460938 C 319.210938 212.355469 320.917969 210.648438 323.023438 210.648438 L 299.398438 210.648438 C 297.292969 210.648438 295.585938 212.355469 295.585938 214.460938 L 295.585938 327.65625 C 295.585938 329.761719 297.292969 331.464844 299.398438 331.464844 L 323.023438 331.464844 C 320.917969 331.464844 319.210938 329.761719 319.210938 327.65625 " />
</g><g id="Check_free_icon_oTWsEyR-19"><path style="fill:none;stroke-width:15;stroke-linecap:round;stroke-linejoin:round;stroke:rgb(0%,0%,0%);stroke-opacity:1;stroke-miterlimit:10;" d="M 0.00144334 0.00108432 L 16.418159 0.00108432 C 19.225459 0.00108432 21.501508 2.277133 21.501508 5.084433 L 21.501508 156.011967 L 21.501508 156.006759 C 21.501508 158.814059 19.225459 161.090107 16.418159 161.090107 L -83.80089 161.090107 C -86.60819 161.090107 -88.884239 158.814059 -88.884239 156.006759 L -88.884239 5.084433 C -88.884239 2.277133 -86.60819 0.00108432 -83.80089 0.00108432 L -34.998661 0.00108432 " transform="matrix(0.749998,0,0,-0.749998,362.248917,331.465657)" />
</g><g id="Check_free_icon_oTWsEyR-20"><path style="fill:none;stroke-width:15;stroke-linecap:round;stroke-linejoin:round;stroke:rgb(0%,0%,0%);stroke-opacity:1;stroke-miterlimit:10;" d="M 0.000105286 0.000290505 L 47.323163 0.000290505 " transform="matrix(0.749998,0,0,-0.749998,319.234296,237.886937)" />
</g><g id="Check_free_icon_oTWsEyR-21"><path style="fill:none;stroke-width:15;stroke-linecap:round;stroke-linejoin:round;stroke:rgb(0%,0%,0%);stroke-opacity:1;stroke-miterlimit:10;" d="M 0.000105286 0.00141443 L 47.323163 0.00141443 " transform="matrix(0.749998,0,0,-0.749998,319.234296,259.071373)" />
</g><g id="Check_free_icon_oTWsEyR-22"><path style="fill:none;stroke-width:15;stroke-linecap:round;stroke-linejoin:round;stroke:rgb(0%,0%,0%);stroke-opacity:1;stroke-miterlimit:10;" d="M 0.000105286 0.00253836 L 47.323163 0.00253836 " transform="matrix(0.749998,0,0,-0.749998,319.234296,280.25581)" />
</g><g id="Check_free_icon_oTWsEyR-23"><path style="fill:none;stroke-width:15;stroke-linecap:round;stroke-linejoin:round;stroke:rgb(0%,0%,0%);stroke-opacity:1;stroke-miterlimit:10;" d="M 0.000105286 -0.00154605 L 28.614774 -0.00154605 " transform="matrix(0.749998,0,0,-0.749998,319.234296,301.440247)" />
</g></g>
</svg>