<svg xmlns="http://www.w3.org/2000/svg" width="384pt" height="384pt" viewBox="0 0 384 384" version="1.1" class="iconadda">
<g>
<g id="Dashboard_free_icon_GeUJWJU-0"><path style=" stroke:none;fill-rule:nonzero;fill:#a69ba7;fill-opacity:1;" d="M 376.273438 334.9375 L 18.542969 334.9375 L 13.132812 332.492188 C 8.867188 332.492188 5.40625 329.03125 5.40625 324.765625 L 5.410156 60.648438 C 5.410156 56.382812 8.871094 52.921875 13.136719 52.921875 L 18.546875 49.058594 L 376.277344 49.058594 C 380.542969 49.058594 384.003906 52.519531 384.003906 56.785156 L 384.003906 327.207031 C 384.003906 331.472656 380.542969 334.933594 376.277344 334.933594 Z M 376.273438 334.9375 " />
</g><g id="Dashboard_free_icon_GeUJWJU-1"><path style=" stroke:none;fill-rule:nonzero;fill:#908191;fill-opacity:1;" d="M 18.542969 49.0625 L 18.542969 334.9375 L 7.726562 334.9375 C 3.460938 334.9375 0 331.476562 0 327.210938 L 0 56.789062 C 0 52.523438 3.460938 49.0625 7.726562 49.0625 Z M 18.542969 49.0625 " />
</g><g id="Dashboard_free_icon_GeUJWJU-2"><path style=" stroke:none;fill-rule:nonzero;fill:#f4f8fa;fill-opacity:1;" d="M 120.199219 220.972656 L 38.949219 220.972656 L 36.742188 218.523438 C 35.035156 218.523438 33.648438 217.140625 33.648438 215.433594 L 31.675781 211.386719 L 31.679688 166.117188 C 31.679688 164.410156 33.0625 163.027344 34.769531 163.027344 L 115.046875 163.027344 L 117.988281 165.292969 L 117.984375 165.292969 C 119.691406 165.292969 121.078125 166.675781 121.078125 168.382812 L 123.292969 171.167969 L 123.292969 217.882812 L 123.289062 217.882812 C 123.289062 219.589844 121.90625 220.972656 120.199219 220.972656 Z M 234.714844 220.972656 L 220.972656 220.972656 L 215.179688 216.339844 L 209.386719 220.972656 L 197.796875 220.972656 L 192 216.339844 L 186.207031 220.972656 L 174.617188 220.972656 L 168.824219 216.339844 L 163.03125 220.972656 L 149.285156 220.972656 C 147.578125 220.972656 146.195312 219.589844 146.195312 217.882812 L 146.195312 166.117188 C 146.195312 164.410156 147.578125 163.027344 149.285156 163.027344 L 234.71875 163.027344 L 234.714844 163.027344 C 236.421875 163.027344 237.808594 164.410156 237.808594 166.117188 L 237.808594 217.882812 C 237.804688 219.589844 236.421875 220.972656 234.714844 220.972656 Z M 349.230469 220.972656 L 263.800781 220.972656 C 262.09375 220.972656 260.710938 219.589844 260.710938 217.882812 L 260.710938 211.378906 L 263.117188 199.835938 L 260.710938 193.789062 L 260.710938 166.117188 C 260.710938 164.410156 262.09375 163.027344 263.800781 163.027344 L 349.234375 163.027344 L 349.230469 163.027344 C 350.9375 163.027344 352.320312 164.410156 352.320312 166.117188 L 352.320312 177.359375 L 348.921875 189.070312 L 352.320312 193.714844 L 352.320312 217.882812 C 352.320312 219.589844 350.9375 220.972656 349.230469 220.972656 Z M 349.230469 139.847656 L 334.9375 139.847656 L 329.695312 135.84375 L 323.347656 139.847656 L 311.757812 139.847656 L 306.515625 135.84375 L 300.167969 139.847656 L 263.800781 139.847656 C 262.09375 139.847656 260.710938 138.464844 260.710938 136.757812 L 260.710938 109.328125 L 265.589844 103.535156 L 260.710938 97.742188 L 260.710938 84.988281 C 260.710938 83.28125 262.09375 81.898438 263.800781 81.898438 L 349.234375 81.898438 L 349.230469 81.898438 C 350.9375 81.898438 352.320312 83.28125 352.320312 84.988281 L 352.320312 97.738281 L 347.902344 103.53125 L 352.320312 109.324219 L 352.320312 136.753906 C 352.324219 137.574219 351.996094 138.363281 351.417969 138.941406 C 350.835938 139.523438 350.050781 139.847656 349.230469 139.847656 Z M 120.199219 302.101562 L 38.207031 302.101562 L 36.960938 299.09375 C 35.253906 299.09375 33.867188 297.710938 33.867188 296.003906 L 31.675781 290.378906 L 31.675781 247.242188 L 31.679688 247.242188 C 31.679688 245.535156 33.0625 244.152344 34.769531 244.152344 L 116.621094 244.152344 L 118.476562 246.882812 C 120.183594 246.882812 121.566406 248.265625 121.566406 249.972656 L 123.289062 255.253906 L 123.289062 299.011719 C 123.289062 299.828125 122.964844 300.617188 122.386719 301.195312 C 121.804688 301.773438 121.019531 302.101562 120.199219 302.101562 Z M 234.714844 302.101562 L 220.972656 302.101562 L 215.179688 298.585938 L 209.386719 302.101562 L 197.796875 302.101562 L 190.90625 298.585938 L 186.207031 302.101562 L 174.617188 302.101562 L 168.824219 298.585938 L 163.03125 302.101562 L 149.285156 302.101562 C 147.578125 302.101562 146.195312 300.71875 146.195312 299.011719 L 146.195312 247.242188 C 146.195312 245.535156 147.578125 244.152344 149.285156 244.152344 L 234.71875 244.152344 L 234.714844 244.152344 C 236.421875 244.152344 237.808594 245.535156 237.808594 247.242188 L 237.808594 299.011719 C 237.804688 300.71875 236.421875 302.101562 234.714844 302.101562 Z M 349.230469 302.101562 L 312.863281 302.101562 L 306.515625 299.605469 L 301.273438 302.101562 L 289.683594 302.101562 L 283.328125 299.605469 L 278.09375 302.101562 L 263.796875 302.101562 L 263.800781 302.101562 C 262.09375 302.101562 260.710938 300.71875 260.710938 299.011719 L 260.710938 273.128906 L 267.332031 267.335938 L 260.710938 261.542969 L 260.710938 247.246094 C 260.710938 245.539062 262.09375 244.152344 263.800781 244.152344 L 349.234375 244.152344 L 349.230469 244.152344 C 350.9375 244.152344 352.320312 245.539062 352.320312 247.246094 L 352.320312 261.539062 L 347.320312 267.332031 L 352.320312 273.125 L 352.320312 299.011719 C 352.320312 300.71875 350.9375 302.101562 349.230469 302.101562 Z M 349.230469 302.101562 " />
</g><g id="Dashboard_free_icon_GeUJWJU-3"><path style=" stroke:none;fill-rule:nonzero;fill:#b8eb7d;fill-opacity:1;" d="M 301.273438 265.425781 L 312.863281 265.425781 L 312.863281 302.101562 L 301.273438 302.101562 Z M 301.273438 265.425781 " />
</g><g id="Dashboard_free_icon_GeUJWJU-4"><path style=" stroke:none;fill-rule:nonzero;fill:#908191;fill-opacity:1;" d="M 77.261719 93.488281 L 37.472656 93.488281 C 34.273438 93.488281 31.679688 90.894531 31.679688 87.695312 C 31.679688 84.496094 34.273438 81.898438 37.472656 81.898438 L 77.261719 81.898438 C 80.460938 81.898438 83.054688 84.492188 83.054688 87.691406 C 83.054688 90.890625 80.460938 93.484375 77.261719 93.484375 Z M 129.085938 116.667969 L 89.972656 116.667969 C 86.769531 116.667969 84.175781 114.074219 84.175781 110.875 C 84.175781 107.671875 86.769531 105.078125 89.972656 105.078125 L 129.085938 105.078125 C 132.285156 105.078125 134.878906 107.671875 134.878906 110.875 C 134.878906 114.074219 132.285156 116.667969 129.085938 116.667969 Z M 66.792969 116.667969 L 37.472656 116.667969 C 34.273438 116.667969 31.679688 114.074219 31.679688 110.875 C 31.679688 107.671875 34.273438 105.078125 37.472656 105.078125 L 66.792969 105.078125 C 69.992188 105.078125 72.585938 107.671875 72.585938 110.875 C 72.585938 114.074219 69.992188 116.667969 66.792969 116.667969 Z M 129.085938 139.847656 L 37.472656 139.847656 C 34.273438 139.847656 31.679688 137.253906 31.679688 134.054688 C 31.679688 130.851562 34.273438 128.257812 37.472656 128.257812 L 129.085938 128.257812 C 132.285156 128.257812 134.878906 130.851562 134.878906 134.054688 C 134.878906 137.253906 132.285156 139.847656 129.085938 139.847656 Z M 129.085938 139.847656 " />
</g><g id="Dashboard_free_icon_GeUJWJU-5"><path style=" stroke:none;fill-rule:nonzero;fill:#fc7f87;fill-opacity:1;" d="M 174.617188 201.65625 L 174.617188 220.972656 L 163.027344 220.972656 L 163.027344 201.65625 C 163.027344 198.457031 165.621094 195.863281 168.820312 195.863281 C 172.019531 195.863281 174.613281 198.457031 174.617188 201.65625 Z M 174.617188 201.65625 " />
</g><g id="Dashboard_free_icon_GeUJWJU-6"><path style=" stroke:none;fill-rule:nonzero;fill:#feee93;fill-opacity:1;" d="M 220.972656 193.929688 L 220.972656 220.972656 L 209.382812 220.972656 L 209.382812 193.929688 C 209.382812 190.730469 211.980469 188.136719 215.175781 188.136719 C 218.375 188.136719 220.972656 190.734375 220.972656 193.929688 Z M 220.972656 193.929688 " />
</g><g id="Dashboard_free_icon_GeUJWJU-7"><path style=" stroke:none;fill-rule:nonzero;fill:#b8eb7d;fill-opacity:1;" d="M 197.792969 186.207031 L 197.792969 220.976562 L 186.203125 220.976562 L 186.203125 186.207031 C 186.207031 183.003906 188.800781 180.414062 192 180.410156 C 195.199219 180.410156 197.792969 183.003906 197.792969 186.207031 Z M 197.792969 186.207031 " />
</g><g id="Dashboard_free_icon_GeUJWJU-8"><path style=" stroke:none;fill-rule:nonzero;fill:#fc7f87;fill-opacity:1;" d="M 220.972656 286.261719 L 220.972656 302.101562 L 209.382812 302.101562 L 209.382812 286.261719 C 209.382812 283.0625 211.980469 280.46875 215.175781 280.46875 C 218.375 280.46875 220.972656 283.066406 220.972656 286.261719 Z M 220.972656 286.261719 " />
</g><g id="Dashboard_free_icon_GeUJWJU-9"><path style=" stroke:none;fill-rule:nonzero;fill:#b8eb7d;fill-opacity:1;" d="M 174.617188 267.332031 L 174.617188 302.101562 L 163.027344 302.101562 L 163.027344 267.332031 C 163.027344 264.132812 165.621094 261.539062 168.820312 261.539062 C 172.019531 261.539062 174.613281 264.132812 174.617188 267.332031 Z M 174.617188 267.332031 " />
</g><g id="Dashboard_free_icon_GeUJWJU-10"><path style=" stroke:none;fill-rule:nonzero;fill:#feee93;fill-opacity:1;" d="M 197.792969 278.921875 L 197.792969 302.101562 L 186.203125 302.101562 L 186.203125 278.921875 C 186.207031 275.722656 188.800781 273.128906 192 273.125 C 195.199219 273.128906 197.792969 275.722656 197.792969 278.921875 Z M 352.320312 177.359375 L 352.320312 193.714844 C 345.335938 199.863281 337.917969 203.203125 330.214844 203.652344 C 320.148438 204.246094 312.945312 199.703125 306.585938 195.695312 C 301.308594 192.371094 296.757812 189.5 290.972656 189.460938 L 290.871094 189.460938 C 282.859375 189.460938 274.230469 195.109375 265.210938 206.25 C 265.15625 206.3125 265.109375 206.375 265.054688 206.429688 L 260.703125 211.382812 L 260.710938 193.785156 C 270.609375 183.214844 280.738281 177.867188 290.875 177.867188 L 291.046875 177.867188 C 300.140625 177.921875 306.855469 182.15625 312.773438 185.886719 C 318.359375 189.410156 323.195312 192.460938 329.539062 192.082031 C 335.75 191.71875 341.984375 188.21875 348.089844 181.683594 C 348.121094 181.644531 348.152344 181.613281 348.183594 181.582031 Z M 352.320312 177.359375 " />
</g><g id="Dashboard_free_icon_GeUJWJU-11"><path style=" stroke:none;fill-rule:nonzero;fill:#fc7f87;fill-opacity:1;" d="M 220.972656 110.875 C 220.972656 126.875 208 139.847656 192 139.847656 L 182.613281 106.390625 L 212.488281 90.382812 C 217.726562 95.628906 220.972656 102.867188 220.972656 110.871094 Z M 220.972656 110.875 " />
</g><g id="Dashboard_free_icon_GeUJWJU-12"><path style=" stroke:none;fill-rule:nonzero;fill:#feee93;fill-opacity:1;" d="M 212.488281 90.382812 L 192 110.875 L 192 139.847656 C 176 139.847656 163.027344 126.875 163.027344 110.875 C 163.027344 94.875 176 81.902344 192 81.902344 C 200.003906 81.902344 207.242188 85.148438 212.488281 90.386719 Z M 212.488281 90.382812 " />
</g><g id="Dashboard_free_icon_GeUJWJU-13"><path style=" stroke:none;fill-rule:nonzero;fill:#fc7f87;fill-opacity:1;" d="M 323.347656 103.53125 L 334.9375 103.53125 L 334.9375 139.84375 L 323.347656 139.84375 Z M 300.167969 103.53125 L 311.757812 103.53125 L 311.757812 139.84375 L 300.167969 139.84375 Z M 300.167969 103.53125 " />
</g><g id="Dashboard_free_icon_GeUJWJU-14"><path style=" stroke:none;fill-rule:nonzero;fill:#b8eb7d;fill-opacity:1;" d="M 123.289062 166.117188 L 123.289062 171.171875 L 90.992188 203.082031 L 90.992188 203.078125 C 89.277344 204.773438 86.695312 205.226562 84.503906 204.222656 L 60.132812 193.027344 L 38.945312 220.972656 L 34.765625 220.972656 L 34.769531 220.972656 C 33.949219 220.972656 33.164062 220.648438 32.582031 220.070312 C 32.003906 219.488281 31.675781 218.703125 31.679688 217.882812 L 31.679688 211.386719 L 53.707031 182.320312 C 55.347656 180.15625 58.265625 179.421875 60.738281 180.550781 L 85.703125 192.015625 L 115.046875 163.027344 L 120.199219 163.027344 C 121.019531 163.027344 121.804688 163.351562 122.382812 163.929688 C 122.964844 164.511719 123.289062 165.296875 123.289062 166.117188 Z M 123.289062 166.117188 " />
</g><g id="Dashboard_free_icon_GeUJWJU-15"><path style=" stroke:none;fill-rule:nonzero;fill:#fc7f87;fill-opacity:1;" d="M 123.289062 247.242188 L 123.289062 255.253906 C 114.921875 267.476562 105.140625 275.125 94.097656 278.039062 C 86.910156 279.933594 81.125 279.320312 76.027344 278.789062 C 71.292969 278.292969 67.203125 277.863281 62.136719 279.324219 C 52.972656 281.953125 44.929688 289.617188 38.207031 302.101562 L 34.769531 302.101562 C 33.949219 302.101562 33.164062 301.773438 32.582031 301.195312 C 32.003906 300.617188 31.675781 299.828125 31.679688 299.011719 L 31.679688 290.382812 C 39.28125 278.65625 48.421875 271.207031 58.9375 268.183594 C 66.167969 266.105469 72.050781 266.722656 77.234375 267.265625 C 81.949219 267.761719 86.019531 268.183594 91.148438 266.832031 C 100.628906 264.335938 109.183594 256.71875 116.621094 244.15625 L 120.199219 244.15625 L 120.199219 244.152344 C 121.019531 244.152344 121.804688 244.476562 122.382812 245.058594 C 122.964844 245.636719 123.289062 246.425781 123.289062 247.242188 Z M 123.289062 247.242188 " />
</g><g id="Dashboard_free_icon_GeUJWJU-16"><path style=" stroke:none;fill-rule:nonzero;fill:#e7ecf3;fill-opacity:1;" d="M 260.710938 261.535156 L 352.324219 261.535156 L 352.324219 273.125 L 260.710938 273.125 Z M 260.710938 261.535156 " />
</g><g id="Dashboard_free_icon_GeUJWJU-17"><path style=" stroke:none;fill-rule:nonzero;fill:#fc7f87;fill-opacity:1;" d="M 289.683594 290.511719 L 289.683594 302.101562 L 278.09375 302.101562 L 278.09375 290.511719 C 278.097656 287.3125 280.691406 284.71875 283.890625 284.714844 C 287.089844 284.71875 289.683594 287.3125 289.683594 290.511719 Z M 289.683594 290.511719 " />
</g><g id="Dashboard_free_icon_GeUJWJU-18"><path style=" stroke:none;fill-rule:nonzero;fill:#e7ecf3;fill-opacity:1;" d="M 260.710938 97.738281 L 352.324219 97.738281 L 352.324219 109.328125 L 260.710938 109.328125 Z M 260.710938 97.738281 " />
</g></g>
</svg>