<svg xmlns="http://www.w3.org/2000/svg" width="384pt" height="384pt" viewBox="0 0 384 384" version="1.1">
<g id="surface523418">
<g id="Dashboard-free-icon-0"><g id="Dashboard_free_icon_C1izY21-0"><path style=" stroke:none;fill-rule:nonzero;fill:rgb(24.705882%,33.72549%,56.078431%);fill-opacity:1;" d="M 38.398438 265.273438 L 21.300781 175.816406 C 20.65625 172.4375 20.996094 168.945312 22.277344 165.75 C 23.558594 162.558594 25.730469 159.796875 28.53125 157.800781 C 50.910156 141.746094 111.929688 104.101562 192 104.101562 C 272.070312 104.101562 333.089844 141.742188 355.46875 157.800781 C 358.265625 159.800781 360.429688 162.5625 361.707031 165.753906 C 362.980469 168.949219 363.316406 172.441406 362.671875 175.816406 L 345.570312 265.273438 C 344.785156 269.386719 342.589844 273.097656 339.367188 275.765625 C 336.140625 278.4375 332.085938 279.898438 327.898438 279.898438 L 56.101562 279.898438 C 51.910156 279.90625 47.847656 278.445312 44.617188 275.777344 C 41.382812 273.105469 39.1875 269.390625 38.398438 265.273438 Z M 38.398438 265.273438 " />
</g></g><g id="Dashboard-free-icon-1"><g id="Dashboard_free_icon_C1izY21-1"><path style=" stroke:none;fill-rule:nonzero;fill:rgb(90.196078%,97.254902%,98.823529%);fill-opacity:1;" d="M 136.746094 218.777344 C 132.554688 230.3125 123.402344 239.355469 111.816406 243.40625 C 100.234375 247.457031 87.441406 246.09375 76.972656 239.6875 C 66.503906 233.277344 59.46875 222.507812 57.808594 210.347656 C 56.144531 198.191406 60.035156 185.925781 68.398438 176.945312 C 76.761719 167.964844 88.71875 163.214844 100.964844 164.011719 C 113.214844 164.804688 124.457031 171.058594 131.589844 181.046875 Z M 247.253906 218.78125 C 251.445312 230.316406 260.597656 239.359375 272.183594 243.414062 C 283.765625 247.464844 296.558594 246.101562 307.03125 239.695312 C 317.5 233.289062 324.535156 222.515625 326.199219 210.355469 C 327.863281 198.195312 323.972656 185.933594 315.609375 176.949219 C 307.246094 167.96875 295.289062 163.21875 283.039062 164.011719 C 270.792969 164.804688 259.546875 171.058594 252.414062 181.046875 Z M 247.253906 218.78125 " />
</g></g><g id="Dashboard-free-icon-2"><g id="Dashboard_free_icon_C1izY21-2"><path style=" stroke:none;fill-rule:nonzero;fill:rgb(90.196078%,97.254902%,98.823529%);fill-opacity:1;" d="M 253.390625 192 C 253.390625 225.90625 225.90625 253.390625 192 253.390625 C 158.09375 253.390625 130.609375 225.90625 130.609375 192 C 130.609375 158.09375 158.09375 130.609375 192 130.609375 C 225.90625 130.609375 253.390625 158.09375 253.390625 192 " />
</g></g><g id="Dashboard-free-icon-3"><g id="Dashboard_free_icon_C1izY21-3"><path style=" stroke:none;fill-rule:nonzero;fill:rgb(22.352941%,91.764706%,45.882353%);fill-opacity:1;" d="M 167.046875 167.039062 C 161.582031 172.503906 158.058594 179.605469 157.015625 187.261719 C 155.976562 194.921875 157.476562 202.707031 161.285156 209.429688 C 164.121094 214.464844 163.25 220.773438 159.15625 224.851562 L 148.597656 235.410156 C 137.070312 223.902344 130.59375 208.285156 130.59375 192 C 130.59375 175.714844 137.070312 160.097656 148.597656 148.589844 Z M 167.046875 167.039062 " />
</g></g><g id="Dashboard-free-icon-4"><g id="Dashboard_free_icon_C1izY21-4"><path style=" stroke:none;fill-rule:nonzero;fill:rgb(97.647059%,32.54902%,32.54902%);fill-opacity:1;" d="M 253.386719 192 C 253.402344 208.28125 246.9375 223.902344 235.414062 235.410156 L 224.882812 224.910156 L 224.886719 224.910156 C 220.789062 220.851562 219.882812 214.570312 222.664062 209.519531 C 226.507812 202.789062 228.023438 194.980469 226.980469 187.304688 C 225.941406 179.625 222.394531 172.503906 216.898438 167.039062 L 216.957031 167.039062 L 235.40625 148.589844 L 235.410156 148.589844 C 246.933594 160.097656 253.402344 175.714844 253.386719 192 Z M 253.386719 192 " />
</g></g><g id="Dashboard-free-icon-5"><g id="Dashboard_free_icon_C1izY21-5"><path style=" stroke:none;fill-rule:nonzero;fill:rgb(100%,85.098039%,18.039216%);fill-opacity:1;" d="M 235.414062 148.589844 L 216.964844 167.039062 L 216.898438 167.039062 C 210.296875 160.414062 201.324219 156.691406 191.96875 156.691406 C 182.613281 156.691406 173.644531 160.414062 167.039062 167.039062 L 148.589844 148.589844 C 160.105469 137.082031 175.71875 130.621094 192 130.621094 C 208.28125 130.621094 223.894531 137.082031 235.410156 148.589844 Z M 235.414062 148.589844 " />
</g></g><g id="Dashboard-free-icon-6"><g id="Dashboard_free_icon_C1izY21-6"><path style=" stroke:none;fill-rule:nonzero;fill:rgb(79.215686%,89.803922%,100%);fill-opacity:1;" d="M 202.355469 231.097656 L 181.65625 231.097656 C 178.757812 231.097656 176.40625 228.746094 176.40625 225.847656 C 176.40625 222.945312 178.757812 220.597656 181.65625 220.597656 L 202.355469 220.597656 C 205.253906 220.597656 207.605469 222.945312 207.605469 225.847656 C 207.605469 228.746094 205.253906 231.097656 202.355469 231.097656 Z M 202.355469 231.097656 " />
</g></g><g id="Dashboard-free-icon-7"><g id="Dashboard_free_icon_C1izY21-7"><path style=" stroke:none;fill-rule:nonzero;fill:rgb(35.294118%,74.901961%,99.607843%);fill-opacity:1;" d="M 192 197.25 C 189.101562 197.25 186.75 194.898438 186.75 192 L 186.75 146.621094 C 186.75 143.722656 189.101562 141.371094 192 141.371094 C 194.898438 141.371094 197.25 143.722656 197.25 146.621094 L 197.25 192 C 197.25 193.390625 196.695312 194.726562 195.710938 195.710938 C 194.726562 196.695312 193.390625 197.25 192 197.25 Z M 98.316406 210.058594 C 96.921875 210.058594 95.589844 209.503906 94.605469 208.519531 L 80.671875 194.578125 C 78.621094 192.53125 78.621094 189.207031 80.671875 187.15625 C 82.71875 185.109375 86.042969 185.109375 88.09375 187.15625 L 102.03125 201.089844 L 102.03125 201.09375 C 103.53125 202.59375 103.976562 204.851562 103.164062 206.816406 C 102.351562 208.777344 100.4375 210.054688 98.316406 210.058594 Z M 98.316406 210.058594 " />
</g></g><g id="Dashboard-free-icon-8"><g id="Dashboard_free_icon_C1izY21-8"><path style=" stroke:none;fill-rule:nonzero;fill:rgb(79.215686%,89.803922%,100%);fill-opacity:1;" d="M 104.007812 230.492188 L 92.625 230.492188 C 89.726562 230.492188 87.375 228.140625 87.375 225.242188 C 87.375 222.34375 89.726562 219.992188 92.625 219.992188 L 104.007812 219.992188 C 106.90625 219.992188 109.257812 222.34375 109.257812 225.242188 C 109.257812 228.140625 106.90625 230.492188 104.007812 230.492188 Z M 104.007812 230.492188 " />
</g></g><g id="Dashboard-free-icon-9"><g id="Dashboard_free_icon_C1izY21-9"><path style=" stroke:none;fill-rule:nonzero;fill:rgb(35.294118%,74.901961%,99.607843%);fill-opacity:1;" d="M 285.679688 210.058594 C 283.558594 210.054688 281.644531 208.773438 280.835938 206.8125 C 280.023438 204.851562 280.46875 202.59375 281.96875 201.09375 L 295.90625 187.160156 L 295.90625 187.15625 C 297.957031 185.109375 301.28125 185.109375 303.328125 187.15625 C 305.378906 189.207031 305.378906 192.53125 303.328125 194.578125 L 289.394531 208.515625 L 289.394531 208.519531 C 288.410156 209.503906 287.074219 210.058594 285.679688 210.058594 Z M 285.679688 210.058594 " />
</g></g><g id="Dashboard-free-icon-10"><g id="Dashboard_free_icon_C1izY21-10"><path style=" stroke:none;fill-rule:nonzero;fill:rgb(79.215686%,89.803922%,100%);fill-opacity:1;" d="M 291.371094 230.492188 L 279.992188 230.492188 C 277.09375 230.492188 274.742188 228.140625 274.742188 225.242188 C 274.742188 222.34375 277.09375 219.992188 279.992188 219.992188 L 291.371094 219.992188 C 294.273438 219.992188 296.621094 222.34375 296.621094 225.242188 C 296.621094 228.140625 294.273438 230.492188 291.371094 230.492188 Z M 291.371094 230.492188 " />
</g></g></g>
</svg>