<svg xmlns="http://www.w3.org/2000/svg" width="384pt" height="384pt" viewBox="0 0 384 384" version="1.1" class="iconadda">
<g>
<g id="Filling_free_icon_1_VdT4x4O-0"><path style=" stroke:none;fill-rule:evenodd;fill:#ece8fc;fill-opacity:1;" d="M 172.183594 215.226562 L 172.183594 295.652344 C 172.183594 298.863281 169.546875 301.476562 166.359375 301.476562 L 11.460938 301.476562 C 8.25 301.476562 5.636719 298.859375 5.636719 295.652344 L 5.632812 215.226562 L 85.996094 206.125 Z M 172.183594 215.226562 " />
</g><g id="Filling_free_icon_1_VdT4x4O-1"><path style=" stroke:none;fill-rule:evenodd;fill:#feeed7;fill-opacity:1;" d="M 74.664062 133.691406 L 74.664062 92.511719 C 74.664062 89.300781 72.050781 86.6875 68.839844 86.6875 L 33.484375 86.6875 C 30.273438 86.6875 27.660156 89.300781 27.660156 92.511719 L 27.660156 133.691406 L 52.875 138.964844 Z M 151.050781 133.691406 L 151.050781 92.511719 C 151.050781 89.300781 148.433594 86.6875 145.226562 86.6875 L 109.871094 86.6875 C 106.660156 86.6875 104.046875 89.300781 104.046875 92.511719 L 104.046875 133.691406 L 129.496094 139.515625 Z M 151.050781 133.691406 " />
</g><g id="Filling_free_icon_1_VdT4x4O-2"><path style=" stroke:none;fill-rule:evenodd;fill:#0b5d70;fill-opacity:1;" d="M 11.460938 133.691406 L 192 133.691406 C 214.429688 133.691406 232.753906 152.039062 232.753906 174.445312 C 232.753906 196.875 214.425781 215.222656 192 215.222656 L 5.632812 215.226562 L 5.632812 139.519531 C 5.632812 135.757812 7.757812 133.695312 11.457031 133.695312 Z M 11.460938 133.691406 " />
</g><g id="Filling_free_icon_1_VdT4x4O-3"><path style=" stroke:none;fill-rule:evenodd;fill:#174b68;fill-opacity:1;" d="M 210.21875 138.03125 C 223.570312 144.75 232.753906 158.589844 232.753906 174.449219 C 232.753906 196.878906 214.425781 215.226562 192 215.226562 L 5.632812 215.226562 L 5.632812 197.027344 L 173.796875 197.027344 C 196.207031 197.027344 214.550781 178.679688 214.550781 156.253906 C 214.550781 149.726562 213 143.519531 210.214844 138.035156 Z M 210.21875 138.03125 " />
</g><g id="Filling_free_icon_1_VdT4x4O-4"><path style=" stroke:none;fill-rule:evenodd;fill:#dfdbee;fill-opacity:1;" d="M 172.183594 215.226562 L 172.183594 295.652344 C 172.183594 298.863281 169.546875 301.476562 166.359375 301.476562 L 11.460938 301.476562 C 8.25 301.476562 5.636719 298.859375 5.636719 295.652344 L 5.636719 283.277344 L 139.425781 283.277344 C 147.417969 283.277344 153.96875 276.730469 153.96875 268.714844 L 153.96875 215.226562 Z M 172.183594 215.226562 " />
</g><g id="Filling_free_icon_1_VdT4x4O-5"><path style=" stroke:none;fill-rule:evenodd;fill:#0078a3;fill-opacity:1;" d="M 191.996094 193.371094 C 202.414062 193.371094 210.917969 184.867188 210.917969 174.449219 C 210.917969 164.03125 202.414062 155.550781 191.996094 155.550781 C 181.578125 155.550781 173.074219 164.035156 173.074219 174.449219 C 173.074219 184.867188 181.578125 193.371094 191.996094 193.371094 Z M 191.996094 193.371094 " />
</g><g id="Filling_free_icon_1_VdT4x4O-6"><path style=" stroke:none;fill-rule:evenodd;fill:#fee5c2;fill-opacity:1;" d="M 151.050781 133.691406 L 151.050781 92.511719 C 151.050781 89.300781 148.433594 86.6875 145.226562 86.6875 L 132.851562 86.6875 L 132.851562 104.566406 C 132.851562 110.582031 127.941406 115.492188 121.925781 115.492188 L 104.046875 115.492188 L 104.046875 133.691406 Z M 74.664062 133.691406 L 74.664062 92.511719 C 74.664062 89.300781 72.050781 86.6875 68.839844 86.6875 L 56.464844 86.6875 L 56.464844 104.566406 C 56.464844 110.582031 51.554688 115.492188 45.539062 115.492188 L 27.660156 115.492188 L 27.660156 133.691406 Z M 74.664062 133.691406 " />
</g><g id="Filling_free_icon_1_VdT4x4O-7"><path style=" stroke:none;fill-rule:evenodd;fill:#feeed7;fill-opacity:1;" d="M 264.597656 143.792969 L 233.984375 126.105469 C 231.199219 124.511719 230.242188 120.9375 231.859375 118.152344 L 249.527344 87.539062 C 251.144531 84.753906 254.714844 83.796875 257.480469 85.414062 L 288.117188 103.082031 C 290.882812 104.675781 291.835938 108.269531 290.242188 111.035156 L 272.554688 141.671875 C 270.960938 144.433594 267.390625 145.390625 264.601562 143.796875 Z M 264.597656 143.792969 " />
</g><g id="Filling_free_icon_1_VdT4x4O-8"><path style=" stroke:none;fill-rule:evenodd;fill:#fee5c2;fill-opacity:1;" d="M 264.597656 143.792969 L 255.988281 138.816406 L 279.5 98.105469 L 288.109375 103.082031 C 290.875 104.675781 291.828125 108.269531 290.234375 111.035156 L 272.546875 141.671875 C 270.953125 144.433594 267.382812 145.390625 264.59375 143.796875 Z M 264.597656 143.792969 " />
</g><g id="Filling_free_icon_1_VdT4x4O-9"><path style=" stroke:none;fill-rule:evenodd;fill:#feeed7;fill-opacity:1;" d="M 348.765625 295.652344 L 348.765625 204.210938 L 251.503906 204.210938 L 251.503906 295.648438 C 251.503906 298.859375 254.117188 301.472656 257.328125 301.472656 L 342.941406 301.472656 C 346.152344 301.472656 348.765625 298.855469 348.765625 295.648438 Z M 348.765625 295.652344 " />
</g><g id="Filling_free_icon_1_VdT4x4O-10"><path style=" stroke:none;fill-rule:evenodd;fill:#fee5c2;fill-opacity:1;" d="M 348.765625 295.652344 L 348.765625 204.210938 L 330.566406 204.210938 L 330.566406 268.714844 C 330.566406 276.730469 324.019531 283.277344 316.003906 283.277344 L 251.5 283.277344 L 251.5 295.652344 C 251.5 298.863281 254.113281 301.476562 257.324219 301.476562 L 342.9375 301.476562 C 346.148438 301.476562 348.761719 298.859375 348.761719 295.652344 Z M 348.765625 295.652344 " />
</g><g id="Filling_free_icon_1_VdT4x4O-11"><path style=" stroke:none;fill-rule:evenodd;fill:#fdd0a4;fill-opacity:1;" d="M 275.910156 233.808594 L 324.363281 233.808594 C 328.125 233.808594 331.273438 232.085938 333.292969 228.875 L 348.769531 204.214844 L 251.503906 204.210938 L 266.980469 228.871094 C 269.363281 232.65625 272.828125 233.804688 275.910156 233.804688 Z M 275.910156 233.808594 " />
</g><g id="Filling_free_icon_1_VdT4x4O-12"><path style=" stroke:none;fill-rule:evenodd;fill:#b1e4fa;fill-opacity:1;" d="M 5.632812 240.929688 L 102.089844 240.929688 C 105.277344 240.929688 107.914062 243.542969 107.914062 246.753906 L 107.914062 269.949219 C 107.914062 273.160156 105.277344 275.773438 102.089844 275.773438 L 5.632812 275.773438 Z M 5.632812 240.929688 " />
</g><g id="Filling_free_icon_1_VdT4x4O-13"><path style=" stroke:none;fill-rule:nonzero;fill:#000001;fill-opacity:1;" d="M 133.042969 180.082031 C 129.9375 180.082031 127.429688 177.550781 127.429688 174.449219 C 127.429688 171.34375 129.9375 168.835938 133.042969 168.835938 L 151.050781 168.835938 C 152.539062 168.835938 153.96875 169.425781 155.019531 170.476562 C 156.074219 171.53125 156.664062 172.960938 156.664062 174.449219 C 156.664062 177.554688 154.15625 180.082031 151.050781 180.082031 Z M 44.03125 270.140625 C 47.136719 270.140625 49.644531 272.671875 49.644531 275.773438 C 49.644531 278.878906 47.136719 281.386719 44.03125 281.386719 L 11.25 281.386719 L 11.25 295.867188 L 166.554688 295.867188 L 166.550781 220.835938 L 11.246094 220.835938 L 11.246094 235.292969 L 107.914062 235.292969 C 111.019531 235.292969 113.527344 237.824219 113.527344 240.929688 L 113.527344 275.773438 C 113.527344 277.261719 112.9375 278.691406 111.886719 279.742188 C 110.832031 280.796875 109.402344 281.386719 107.914062 281.382812 L 69.5 281.382812 C 68.011719 281.386719 66.582031 280.796875 65.527344 279.742188 C 64.476562 278.691406 63.886719 277.261719 63.886719 275.773438 C 63.886719 272.667969 66.394531 270.140625 69.5 270.140625 L 102.28125 270.140625 L 102.28125 246.5625 L 11.246094 246.5625 L 11.246094 270.140625 Z M 261.644531 209.824219 L 273.167969 228.171875 L 327.105469 228.171875 L 338.628906 209.824219 L 312.882812 209.824219 C 309.78125 209.824219 307.25 207.316406 307.25 204.210938 L 307.246094 204.210938 C 307.246094 202.71875 307.839844 201.285156 308.894531 200.226562 C 309.953125 199.171875 311.386719 198.578125 312.878906 198.578125 L 348.765625 198.578125 C 350.296875 198.578125 351.71875 199.195312 352.785156 200.257812 L 382.359375 229.832031 C 384.550781 232.019531 384.550781 235.59375 382.359375 237.785156 C 380.171875 239.972656 376.597656 239.972656 374.410156 237.785156 L 354.40625 217.777344 L 354.402344 301.476562 C 354.402344 304.582031 351.871094 307.109375 348.769531 307.109375 L 251.503906 307.109375 C 248.398438 307.109375 245.871094 304.578125 245.871094 301.476562 L 245.871094 217.777344 L 225.867188 237.785156 C 223.679688 239.972656 220.105469 239.972656 217.914062 237.785156 C 215.726562 235.59375 215.726562 232.023438 217.914062 229.832031 L 247.507812 200.238281 C 248.550781 199.175781 249.996094 198.578125 251.503906 198.578125 L 287.390625 198.578125 C 288.882812 198.578125 290.316406 199.171875 291.375 200.226562 C 292.433594 201.285156 293.023438 202.71875 293.023438 204.210938 C 293.023438 207.316406 290.492188 209.824219 287.390625 209.824219 Z M 343.15625 223.707031 L 335.160156 236.421875 C 334.191406 238.273438 332.277344 239.4375 330.183594 239.441406 L 270.082031 239.441406 C 268.210938 239.441406 266.402344 238.484375 265.339844 236.804688 L 257.113281 223.707031 L 257.113281 295.863281 L 343.15625 295.863281 Z M 157.601562 261.164062 C 157.601562 264.269531 155.09375 266.796875 151.988281 266.796875 L 151.988281 266.800781 C 150.492188 266.800781 149.058594 266.207031 148 265.152344 C 146.945312 264.09375 146.351562 262.660156 146.351562 261.167969 L 146.351562 255.53125 C 146.351562 254.039062 146.945312 252.605469 148 251.546875 C 149.058594 250.492188 150.492188 249.898438 151.988281 249.898438 C 155.09375 249.898438 157.601562 252.429688 157.601562 255.53125 Z M 135.578125 261.164062 C 135.578125 264.269531 133.046875 266.796875 129.945312 266.796875 C 126.839844 266.796875 124.3125 264.265625 124.3125 261.164062 L 124.3125 255.53125 C 124.3125 252.425781 126.84375 249.898438 129.945312 249.898438 C 133.050781 249.898438 135.578125 252.429688 135.578125 255.53125 Z M 266.855469 151.546875 L 226.144531 128.054688 L 226.140625 128.058594 C 223.46875 126.507812 222.546875 123.089844 224.078125 120.40625 L 247.589844 79.695312 C 249.121094 77.015625 252.542969 76.101562 255.222656 77.632812 L 295.9375 101.148438 C 298.617188 102.679688 299.550781 106.101562 298 108.78125 L 274.507812 149.488281 C 272.957031 152.167969 269.53125 153.101562 266.855469 151.550781 Z M 236.601562 121.144531 L 267.597656 139.042969 L 285.5 108.046875 L 254.503906 90.125 Z M 145.4375 128.054688 L 145.4375 92.316406 L 109.679688 92.324219 L 109.679688 128.0625 Z M 11.246094 139.328125 L 11.246094 168.835938 L 19.941406 168.835938 C 23.046875 168.835938 25.574219 171.34375 25.574219 174.449219 C 25.574219 177.554688 23.042969 180.082031 19.941406 180.082031 L 11.246094 180.082031 L 11.246094 209.589844 L 191.996094 209.589844 C 201.648438 209.589844 210.429688 205.636719 216.804688 199.257812 C 223.183594 192.902344 227.136719 184.121094 227.136719 174.449219 C 227.136719 164.796875 223.183594 156.015625 216.804688 149.640625 C 210.425781 143.285156 201.644531 139.328125 191.996094 139.328125 Z M 98.410156 128.0625 L 98.410156 86.691406 C 98.410156 83.585938 100.941406 81.058594 104.042969 81.058594 L 151.046875 81.058594 C 154.152344 81.058594 156.679688 83.589844 156.679688 86.691406 L 156.679688 128.0625 L 191.992188 128.0625 C 204.75 128.0625 216.355469 133.292969 224.753906 141.691406 C 233.171875 150.089844 238.382812 161.695312 238.382812 174.453125 C 238.382812 187.230469 233.175781 198.816406 224.753906 207.234375 C 216.355469 215.632812 204.75 220.839844 191.992188 220.839844 L 177.789062 220.839844 L 177.789062 301.480469 C 177.789062 304.585938 175.28125 307.113281 172.175781 307.113281 L 5.632812 307.113281 C 2.527344 307.113281 0 304.582031 0 301.480469 L 0 133.695312 C 0 130.589844 2.53125 128.0625 5.632812 128.0625 L 22.046875 128.0625 L 22.046875 86.691406 C 22.046875 83.585938 24.554688 81.058594 27.660156 81.058594 L 74.664062 81.058594 C 77.769531 81.058594 80.296875 83.589844 80.296875 86.691406 L 80.296875 128.0625 Z M 69.050781 128.0625 L 69.050781 92.324219 L 33.292969 92.324219 L 33.292969 128.0625 Z M 45.644531 180.082031 C 42.542969 180.082031 40.03125 177.550781 40.03125 174.449219 C 40.03125 171.34375 42.539062 168.835938 45.644531 168.835938 L 63.652344 168.835938 C 65.140625 168.835938 66.570312 169.425781 67.621094 170.476562 C 68.675781 171.53125 69.265625 172.960938 69.265625 174.449219 C 69.265625 177.554688 66.757812 180.082031 63.652344 180.082031 Z M 89.355469 180.082031 C 86.25 180.082031 83.722656 177.550781 83.722656 174.449219 C 83.722656 171.34375 86.253906 168.835938 89.355469 168.835938 L 107.339844 168.835938 C 110.445312 168.835938 112.972656 171.34375 112.972656 174.449219 C 112.972656 177.554688 110.441406 180.082031 107.339844 180.082031 Z M 191.996094 149.914062 C 198.777344 149.914062 204.902344 152.65625 209.34375 157.097656 C 213.785156 161.542969 216.53125 167.683594 216.53125 174.445312 C 216.53125 181.226562 213.789062 187.371094 209.34375 191.792969 C 204.898438 196.234375 198.777344 199 191.996094 199 C 185.214844 199 179.089844 196.234375 174.648438 191.792969 C 170.207031 187.371094 167.460938 181.226562 167.460938 174.445312 C 167.460938 167.683594 170.203125 161.542969 174.648438 157.097656 C 179.09375 152.65625 185.214844 149.914062 191.996094 149.914062 Z M 201.394531 165.050781 C 198.992188 162.648438 195.675781 161.160156 191.996094 161.160156 C 188.316406 161.160156 185 162.648438 182.597656 165.050781 L 182.601562 165.050781 C 180.109375 167.542969 178.707031 170.921875 178.710938 174.449219 C 178.710938 178.128906 180.199219 181.445312 182.601562 183.847656 C 185.003906 186.25 188.320312 187.738281 192 187.738281 C 195.679688 187.738281 198.996094 186.25 201.398438 183.847656 L 201.394531 183.84375 C 203.890625 181.355469 205.289062 177.972656 205.285156 174.449219 C 205.285156 170.921875 203.886719 167.542969 201.394531 165.050781 Z M 201.394531 165.050781 " />
</g></g>
</svg>