<svg xmlns="http://www.w3.org/2000/svg" width="384pt" height="384pt" viewBox="0 0 384 384" version="1.1" class="iconadda">
<g>
<g id="Handset_free_icon-0"><path style=" stroke:none;fill-rule:nonzero;fill:#f9eac8;fill-opacity:1;" d="M 353.03125 6.195312 L 192 6.195312 C 185.296875 6.183594 178.773438 8.355469 173.417969 12.386719 L 166.25 37.164062 L 166.25 155.78125 C 166.25 172.882812 180.113281 186.75 197.21875 186.75 L 353.03125 186.75 L 377.808594 179.609375 L 377.8125 179.609375 C 381.839844 174.253906 384.011719 167.734375 384 161.03125 L 384 37.160156 C 384 20.058594 370.136719 6.191406 353.03125 6.191406 Z M 353.03125 6.195312 " />
</g><g id="Handset_free_icon-1"><path style=" stroke:none;fill-rule:nonzero;fill:#fec16a;fill-opacity:1;" d="M 349.097656 102.402344 L 340.648438 99.09375 L 323 93 L 332.386719 74.324219 L 331.082031 70.40625 C 329.394531 65.347656 324.664062 61.933594 319.332031 61.9375 L 291.097656 61.9375 L 291.097656 136.261719 L 346.839844 136.261719 L 346.839844 136.257812 C 350.261719 136.257812 353.03125 133.484375 353.035156 130.066406 L 353.035156 108.171875 C 353.03125 105.621094 351.46875 103.332031 349.097656 102.402344 Z M 349.097656 102.402344 " />
</g><g id="Handset_free_icon-2"><path style=" stroke:none;fill-rule:nonzero;fill:#fe7f87;fill-opacity:1;" d="M 291.097656 130.0625 L 210.582031 130.0625 C 207.160156 130.0625 204.386719 127.292969 204.386719 123.871094 L 204.386719 55.742188 C 204.386719 52.320312 207.160156 49.546875 210.582031 49.546875 L 291.097656 49.546875 C 294.515625 49.546875 297.289062 52.320312 297.289062 55.742188 L 297.289062 123.871094 C 297.289062 125.515625 296.636719 127.089844 295.476562 128.25 C 294.316406 129.410156 292.738281 130.0625 291.097656 130.0625 Z M 291.097656 130.0625 " />
</g><g id="Handset_free_icon-3"><path style=" stroke:none;fill-rule:nonzero;fill:#e5636f;fill-opacity:1;" d="M 216.773438 123.871094 C 213.351562 123.871094 210.582031 121.097656 210.582031 117.675781 L 210.582031 49.546875 L 204.386719 49.546875 C 200.964844 49.546875 198.195312 52.320312 198.195312 55.742188 L 198.195312 130.066406 C 198.195312 133.484375 200.964844 136.257812 204.386719 136.257812 L 291.097656 136.257812 C 294.515625 136.257812 297.289062 133.484375 297.289062 130.066406 L 297.289062 123.871094 Z M 216.773438 123.871094 " />
</g><g id="Handset_free_icon-4"><path style=" stroke:none;fill-rule:nonzero;fill:#fe7f87;fill-opacity:1;" d="M 257 333 L 198.835938 293.203125 L 177.746094 296.414062 L 171.910156 302.25 C 167.625 306.535156 160.820312 307.164062 155.941406 303.570312 C 140.976562 292.542969 126.21875 279.921875 112.054688 265.757812 C 97.890625 251.59375 85.269531 236.835938 74.242188 221.871094 C 70.648438 216.992188 71.277344 210.183594 75.5625 205.902344 L 81.398438 200.066406 L 78.75 177.5 L 38.953125 119.335938 L 24.460938 116.851562 L 14.4375 126.871094 C 7.371094 133.371094 1.964844 146.460938 3.621094 152.871094 C 15.007812 196.890625 44.628906 246.378906 88.875 290.625 C 133.121094 334.871094 182.953125 364.085938 226.96875 375.46875 C 233.378906 377.125 246.253906 368.046875 250.933594 363.367188 L 260.953125 353.347656 Z M 257 333 " />
</g><g id="Handset_free_icon-5"><path style=" stroke:none;fill-rule:nonzero;fill:#fec16a;fill-opacity:1;" d="M 260.890625 74.324219 L 234.59375 74.324219 C 232.097656 74.324219 230.472656 76.949219 231.589844 79.183594 L 235.351562 86.710938 L 246.277344 91.96875 L 260.125 86.710938 L 263.890625 79.183594 C 265.007812 76.949219 263.382812 74.324219 260.886719 74.324219 Z M 260.890625 74.324219 " />
</g><g id="Handset_free_icon-6"><path style=" stroke:none;fill-rule:nonzero;fill:#e5636f;fill-opacity:1;" d="M 270.535156 323.019531 L 212.371094 283.222656 C 204.992188 278.171875 195.0625 279.097656 188.738281 285.417969 L 177.742188 296.414062 L 260.953125 353.347656 L 272.296875 342.003906 C 277.78125 336.519531 276.933594 327.402344 270.53125 323.023438 Z M 24.460938 116.851562 L 81.394531 200.0625 L 92.386719 189.070312 C 98.710938 182.746094 99.632812 172.820312 94.582031 165.4375 L 54.789062 107.273438 C 50.410156 100.871094 41.292969 100.023438 35.808594 105.507812 Z M 24.460938 116.851562 " />
</g><g id="Handset_free_icon-7"><path style=" stroke:none;fill-rule:nonzero;fill:#e5636f;fill-opacity:1;" d="M 233.046875 368.230469 C 189.03125 356.851562 138.996094 327.300781 94.75 283.054688 C 50.507812 238.808594 20.953125 188.777344 9.574219 144.757812 C 7.910156 138.355469 9.761719 131.550781 14.441406 126.871094 L 5.464844 135.851562 C 0.785156 140.527344 -1.066406 147.332031 0.597656 153.738281 C 11.980469 197.753906 41.53125 247.789062 85.773438 292.035156 C 130.019531 336.277344 180.054688 365.828125 224.070312 377.207031 C 230.472656 378.871094 237.277344 377.019531 241.957031 372.34375 L 250.933594 363.367188 C 246.253906 368.042969 239.449219 369.894531 233.046875 368.230469 Z M 233.046875 368.230469 " />
</g><g id="Handset_free_icon-8"><path style=" stroke:none;fill-rule:nonzero;fill:#f4dbb3;fill-opacity:1;" d="M 192 179.613281 C 181.738281 179.613281 173.417969 171.292969 173.417969 161.03125 L 173.417969 12.386719 C 165.9375 18.039062 161.03125 27.0625 161.03125 37.160156 L 161.03125 161.03125 C 161.03125 178.132812 174.894531 192 192 192 L 204.386719 192 C 207.808594 192 210.582031 194.773438 210.582031 198.195312 L 210.582031 232.792969 C 210.582031 238.3125 217.253906 241.074219 221.15625 237.171875 L 262.695312 195.632812 L 262.695312 195.628906 C 265.015625 193.304688 268.167969 192 271.453125 192 L 353.03125 192 C 363.128906 192 372.160156 187.09375 377.8125 179.613281 Z M 192 179.613281 " />
</g><g id="Handset_free_icon-9"><path style=" stroke:none;fill-rule:nonzero;fill:#5c5361;fill-opacity:1;" d="M 247.742188 139.355469 C 247.742188 147.90625 240.808594 154.839844 232.257812 154.839844 C 223.707031 154.839844 216.773438 147.90625 216.773438 139.355469 C 216.773438 130.804688 223.707031 123.871094 232.257812 123.871094 C 240.808594 123.871094 247.742188 130.804688 247.742188 139.355469 " />
</g><g id="Handset_free_icon-10"><path style=" stroke:none;fill-rule:nonzero;fill:#5c5361;fill-opacity:1;" d="M 340.644531 139.355469 C 340.644531 147.90625 333.710938 154.839844 325.160156 154.839844 C 316.609375 154.839844 309.675781 147.90625 309.675781 139.355469 C 309.675781 130.804688 316.609375 123.871094 325.160156 123.871094 C 333.710938 123.871094 340.644531 130.804688 340.644531 139.355469 " />
</g><g id="Handset_free_icon-11"><path style=" stroke:none;fill-rule:nonzero;fill:#feefa0;fill-opacity:1;" d="M 235.355469 86.710938 L 244.738281 105.480469 C 245.976562 107.953125 249.507812 107.953125 250.746094 105.480469 L 260.128906 86.710938 Z M 235.355469 86.710938 " />
</g><g id="Handset_free_icon-12"><path style=" stroke:none;fill-rule:nonzero;fill:#dbeaff;fill-opacity:1;" d="M 315.871094 99.097656 L 340.644531 99.097656 L 332.386719 74.324219 L 315.871094 74.324219 C 312.449219 74.324219 309.675781 77.09375 309.675781 80.515625 L 309.675781 92.902344 C 309.675781 96.324219 312.449219 99.097656 315.871094 99.097656 Z M 315.871094 99.097656 " />
</g></g>
</svg>