<svg xmlns="http://www.w3.org/2000/svg" width="384pt" height="384pt" viewBox="0 0 384 384" version="1.1">
<g id="surface1257783">
<g id="House-free-icon_99-0"><g id="House_free_icon_99-0"><path style=" stroke:none;fill-rule:nonzero;fill:rgb(100%,87.843137%,69.803922%);fill-opacity:1;" d="M 339.199219 174.65625 L 339.199219 371.199219 C 339.199219 372.898438 338.527344 374.523438 337.324219 375.726562 C 336.125 376.925781 334.496094 377.601562 332.800781 377.601562 L 51.199219 377.601562 C 47.664062 377.601562 44.800781 374.734375 44.800781 371.199219 L 44.800781 174.65625 L 192 52.542969 Z M 339.199219 174.65625 " />
</g></g><g id="House-free-icon_99-1"><g id="House_free_icon_99-1"><path style=" stroke:none;fill-rule:nonzero;fill:rgb(87.45098%,76.862745%,61.176471%);fill-opacity:1;" d="M 192 52.542969 L 182.398438 60.503906 L 320 174.65625 L 320 371.199219 C 320 372.898438 319.324219 374.523438 318.125 375.726562 C 316.925781 376.925781 315.296875 377.601562 313.601562 377.601562 L 332.800781 377.601562 C 334.496094 377.601562 336.125 376.925781 337.324219 375.726562 C 338.527344 374.523438 339.199219 372.898438 339.199219 371.199219 L 339.199219 174.65625 Z M 192 52.542969 " />
</g></g><g id="House-free-icon_99-2"><g id="House_free_icon_99-2"><path style=" stroke:none;fill-rule:nonzero;fill:rgb(78.431373%,11.764706%,11.764706%);fill-opacity:1;" d="M 339.199219 51.199219 L 339.199219 126.589844 L 294.398438 89.40625 L 294.398438 51.199219 C 294.398438 47.664062 297.265625 44.800781 300.800781 44.800781 L 332.800781 44.800781 C 334.496094 44.800781 336.125 45.472656 337.324219 46.675781 C 338.527344 47.875 339.199219 49.503906 339.199219 51.199219 Z M 339.199219 51.199219 " />
</g></g><g id="House-free-icon_99-3"><g id="House_free_icon_99-3"><path style=" stroke:none;fill-rule:nonzero;fill:rgb(95.686275%,26.27451%,20.784314%);fill-opacity:1;" d="M 375.9375 165.761719 L 360 183.808594 C 357.691406 186.433594 353.699219 186.71875 351.039062 184.449219 L 339.199219 174.65625 L 192 52.542969 L 44.800781 174.65625 L 32.960938 184.449219 C 30.300781 186.71875 26.308594 186.433594 24 183.808594 L 8.0625 165.761719 C 6.878906 164.457031 6.28125 162.722656 6.414062 160.96875 C 6.550781 159.210938 7.398438 157.589844 8.769531 156.480469 L 187.839844 7.871094 C 190.257812 5.886719 193.742188 5.886719 196.160156 7.871094 L 294.398438 89.40625 L 339.199219 126.589844 L 375.230469 156.476562 L 375.230469 156.480469 C 376.601562 157.589844 377.449219 159.210938 377.585938 160.96875 C 377.71875 162.722656 377.121094 164.457031 375.9375 165.761719 Z M 375.9375 165.761719 " />
</g></g><g id="House-free-icon_99-4"><g id="House_free_icon_99-4"><path style=" stroke:none;fill-rule:nonzero;fill:rgb(78.431373%,11.764706%,11.764706%);fill-opacity:1;" d="M 375.230469 156.480469 L 339.199219 126.59375 L 294.398438 89.410156 L 196.160156 7.871094 C 193.742188 5.886719 190.257812 5.886719 187.839844 7.871094 L 182.398438 12.382812 L 275.199219 89.40625 L 320 126.589844 L 356.03125 156.476562 L 356.03125 156.480469 C 357.398438 157.589844 358.25 159.210938 358.382812 160.96875 C 358.515625 162.722656 357.921875 164.457031 356.734375 165.761719 L 344.792969 179.285156 L 351.039062 184.449219 C 353.699219 186.71875 357.691406 186.433594 360 183.808594 L 375.9375 165.761719 C 377.121094 164.457031 377.71875 162.722656 377.585938 160.96875 C 377.449219 159.210938 376.601562 157.589844 375.230469 156.480469 Z M 375.230469 156.480469 " />
</g></g><g id="House-free-icon_99-5"><g id="House_free_icon_99-5"><path style=" stroke:none;fill-rule:nonzero;fill:rgb(96.078431%,48.627451%,0%);fill-opacity:1;" d="M 281.601562 272.449219 L 281.601562 309.953125 C 281.597656 312.519531 280.0625 314.839844 277.695312 315.839844 L 194.496094 351.488281 C 193.535156 351.921875 192.46875 352.074219 191.425781 351.9375 L 192 346.175781 L 192 262.398438 L 227.390625 291.902344 C 229.230469 293.445312 231.78125 293.816406 233.984375 292.863281 Z M 281.601562 272.449219 " />
</g></g><g id="House-free-icon_99-6"><g id="House_free_icon_99-6"><path style=" stroke:none;fill-rule:nonzero;fill:rgb(96.078431%,48.627451%,0%);fill-opacity:1;" d="M 192 262.398438 L 192 346.175781 L 191.425781 351.9375 C 190.757812 351.941406 190.097656 351.789062 189.503906 351.488281 L 106.304688 315.839844 C 103.9375 314.839844 102.402344 312.519531 102.398438 309.953125 L 102.398438 272.449219 L 150.015625 292.863281 C 152.21875 293.816406 154.769531 293.445312 156.609375 291.902344 Z M 192 262.398438 " />
</g></g><g id="House-free-icon_99-7"><g id="House_free_icon_99-7"><path style=" stroke:none;fill-rule:nonzero;fill:rgb(100%,59.607843%,0.392157%);fill-opacity:1;" d="M 301.953125 198.59375 L 281.601562 224 L 192 185.601562 L 214.527344 157.378906 C 216.34375 155.140625 219.429688 154.382812 222.078125 155.523438 L 299.453125 188.675781 L 299.457031 188.671875 C 301.296875 189.464844 302.664062 191.070312 303.15625 193.015625 C 303.644531 194.960938 303.199219 197.023438 301.953125 198.59375 Z M 301.953125 198.59375 " />
</g></g><g id="House-free-icon_99-8"><g id="House_free_icon_99-8"><path style=" stroke:none;fill-rule:nonzero;fill:rgb(96.078431%,48.627451%,0%);fill-opacity:1;" d="M 299.457031 188.671875 L 222.078125 155.519531 C 219.429688 154.382812 216.347656 155.140625 214.527344 157.375 L 212.664062 159.710938 L 280.257812 188.671875 C 282.097656 189.464844 283.464844 191.070312 283.957031 193.015625 C 284.445312 194.960938 284 197.023438 282.753906 198.59375 L 267.3125 217.875 L 281.601562 224 L 301.953125 198.59375 C 303.199219 197.023438 303.644531 194.960938 303.15625 193.015625 C 302.664062 191.070312 301.296875 189.464844 299.457031 188.671875 Z M 299.457031 188.671875 " />
</g></g><g id="House-free-icon_99-9"><g id="House_free_icon_99-9"><path style=" stroke:none;fill-rule:nonzero;fill:rgb(100%,59.607843%,0.392157%);fill-opacity:1;" d="M 192 262.398438 L 156.609375 291.902344 C 154.769531 293.445312 152.21875 293.816406 150.015625 292.863281 L 102.398438 272.449219 L 73.597656 260.097656 L 73.601562 260.097656 C 71.554688 259.234375 70.105469 257.367188 69.777344 255.167969 C 69.449219 252.972656 70.292969 250.765625 72 249.34375 L 102.398438 224 Z M 192 262.398438 " />
</g></g><g id="House-free-icon_99-10"><g id="House_free_icon_99-10"><path style=" stroke:none;fill-rule:nonzero;fill:rgb(96.078431%,48.627451%,0%);fill-opacity:1;" d="M 102.398438 224 L 95.875 229.433594 L 172.800781 262.398438 L 140.929688 288.964844 L 150.019531 292.863281 L 150.015625 292.863281 C 152.21875 293.816406 154.769531 293.445312 156.609375 291.902344 L 192 262.398438 Z M 102.398438 224 " />
</g></g><g id="House-free-icon_99-11"><g id="House_free_icon_99-11"><path style=" stroke:none;fill-rule:nonzero;fill:rgb(100%,59.607843%,0.392157%);fill-opacity:1;" d="M 192 185.601562 L 102.398438 224 L 82.046875 198.59375 C 80.800781 197.023438 80.355469 194.960938 80.84375 193.015625 C 81.335938 191.070312 82.703125 189.464844 84.542969 188.671875 L 161.921875 155.519531 C 164.570312 154.378906 167.65625 155.136719 169.472656 157.375 Z M 192 185.601562 " />
</g></g><g id="House-free-icon_99-12"><g id="House_free_icon_99-12"><path style=" stroke:none;fill-rule:nonzero;fill:rgb(96.078431%,48.627451%,0%);fill-opacity:1;" d="M 169.472656 157.375 C 167.652344 155.140625 164.570312 154.382812 161.921875 155.519531 L 152.136719 159.710938 L 172.800781 185.601562 L 97.492188 217.875 L 102.398438 224 L 192 185.601562 Z M 169.472656 157.375 " />
</g></g><g id="House-free-icon_99-13"><g id="House_free_icon_99-13"><path style=" stroke:none;fill-rule:nonzero;fill:rgb(84.705882%,26.27451%,8.235294%);fill-opacity:1;" d="M 281.601562 224 L 192 262.398438 L 102.398438 224 L 192 185.601562 Z M 281.601562 224 " />
</g></g><g id="House-free-icon_99-14"><g id="House_free_icon_99-14"><path style=" stroke:none;fill-rule:nonzero;fill:rgb(100%,59.607843%,0.392157%);fill-opacity:1;" d="M 310.398438 260.097656 L 281.601562 272.449219 L 233.984375 292.863281 C 231.78125 293.816406 229.230469 293.445312 227.390625 291.902344 L 192 262.398438 L 281.601562 224 L 312 249.34375 C 313.707031 250.765625 314.550781 252.972656 314.222656 255.167969 C 313.894531 257.367188 312.445312 259.234375 310.398438 260.097656 Z M 310.398438 260.097656 " />
</g></g><g id="House-free-icon_99-15"><g id="House_free_icon_99-15"><path style=" stroke:none;fill-rule:nonzero;fill:rgb(96.078431%,48.627451%,0%);fill-opacity:1;" d="M 312 249.34375 L 281.601562 224 L 268.921875 229.433594 L 292.800781 249.34375 C 294.507812 250.765625 295.347656 252.972656 295.023438 255.167969 C 294.695312 257.367188 293.246094 259.234375 291.199219 260.097656 L 262.398438 272.449219 L 223.871094 288.96875 L 227.390625 291.90625 L 227.390625 291.902344 C 229.230469 293.445312 231.78125 293.816406 233.984375 292.863281 L 281.601562 272.449219 L 310.402344 260.097656 L 310.398438 260.097656 C 312.445312 259.234375 313.894531 257.367188 314.222656 255.167969 C 314.550781 252.972656 313.707031 250.765625 312 249.34375 Z M 312 249.34375 " />
</g></g><g id="House-free-icon_99-16"><g id="House_free_icon_99-16"><path style=" stroke:none;fill-rule:nonzero;fill:rgb(0%,0%,0%);fill-opacity:1;" d="M 345.601562 123.558594 L 345.601562 51.199219 C 345.601562 47.804688 344.25 44.550781 341.851562 42.148438 C 339.449219 39.75 336.195312 38.398438 332.800781 38.398438 L 300.800781 38.398438 C 293.730469 38.398438 288 44.128906 288 51.199219 L 288 75.773438 L 200.230469 2.964844 C 195.453125 -0.992188 188.539062 -0.992188 183.761719 2.964844 L 4.664062 151.550781 C 1.976562 153.78125 0.308594 157.003906 0.0390625 160.484375 C -0.230469 163.964844 0.925781 167.40625 3.238281 170.023438 L 19.199219 188.03125 C 23.808594 193.277344 31.761719 193.894531 37.121094 189.40625 L 38.402344 188.304688 L 38.398438 371.199219 C 38.398438 378.269531 44.128906 384 51.199219 384 L 332.800781 384 C 336.195312 384 339.449219 382.652344 341.851562 380.25 C 344.25 377.851562 345.601562 374.59375 345.601562 371.199219 L 345.601562 188.308594 L 346.925781 189.410156 L 346.925781 189.40625 C 352.269531 193.878906 360.203125 193.265625 364.800781 188.03125 L 380.738281 170.023438 L 380.734375 170.023438 C 383.054688 167.410156 384.210938 163.96875 383.941406 160.484375 C 383.675781 157.003906 382.003906 153.78125 379.316406 151.550781 Z M 300.800781 51.199219 L 332.800781 51.199219 L 332.800781 112.941406 L 300.800781 86.398438 Z M 332.800781 371.199219 L 51.199219 371.199219 L 51.199219 177.691406 L 192 60.882812 L 332.800781 177.6875 Z M 355.234375 179.542969 L 355.230469 179.546875 C 355.195312 179.582031 355.136719 179.582031 355.097656 179.546875 L 196.089844 47.640625 C 193.71875 45.671875 190.28125 45.671875 187.910156 47.640625 L 28.800781 179.546875 L 12.839844 161.402344 L 192.0625 12.800781 L 371.199219 161.535156 Z M 355.234375 179.542969 " />
</g></g><g id="House-free-icon_99-17"><g id="House_free_icon_99-17"><path style=" stroke:none;fill-rule:nonzero;fill:rgb(0%,0%,0%);fill-opacity:1;" d="M 174.4375 153.394531 C 170.832031 148.921875 164.691406 147.390625 159.40625 149.636719 L 82.011719 182.800781 L 82.007812 182.804688 C 78.335938 184.378906 75.605469 187.578125 74.632812 191.457031 C 73.660156 195.335938 74.558594 199.445312 77.054688 202.566406 L 93.476562 223.097656 L 67.921875 244.398438 C 64.5 247.25 62.808594 251.671875 63.453125 256.082031 C 64.09375 260.488281 66.984375 264.242188 71.078125 265.996094 L 96 276.671875 L 96 309.953125 C 96 315.074219 99.054688 319.699219 103.761719 321.714844 L 186.960938 357.363281 L 186.964844 357.363281 C 190.179688 358.738281 193.816406 358.738281 197.03125 357.363281 L 280.230469 321.714844 C 284.941406 319.699219 288 315.070312 288 309.945312 L 288 276.664062 L 312.921875 265.988281 L 312.921875 265.992188 C 317.015625 264.238281 319.90625 260.480469 320.546875 256.074219 C 321.191406 251.667969 319.5 247.242188 316.078125 244.390625 L 290.523438 223.089844 L 306.945312 202.558594 C 309.441406 199.4375 310.339844 195.328125 309.367188 191.449219 C 308.394531 187.574219 305.664062 184.371094 301.992188 182.796875 L 224.597656 149.636719 L 224.59375 149.636719 C 219.304688 147.390625 213.164062 148.925781 209.554688 153.402344 L 192 175.359375 Z M 192 255.4375 L 118.644531 224 L 192 192.5625 L 265.355469 224 Z M 87.039062 194.558594 L 164.429688 161.394531 L 181.710938 183.027344 L 104.359375 216.199219 Z M 103.472656 231.421875 L 179.863281 264.15625 L 152.507812 286.972656 L 76.15625 254.230469 Z M 108.800781 282.164062 L 147.480469 298.746094 C 151.902344 300.648438 157.019531 299.898438 160.710938 296.804688 L 185.601562 276.070312 L 185.601562 342.855469 L 108.800781 309.945312 Z M 275.199219 309.945312 L 198.398438 342.855469 L 198.398438 276.0625 L 223.289062 296.796875 L 223.289062 296.800781 C 226.976562 299.902344 232.101562 300.652344 236.523438 298.738281 L 275.199219 282.164062 Z M 231.488281 286.96875 L 204.121094 264.164062 L 280.511719 231.429688 L 307.878906 254.234375 Z M 219.558594 161.402344 L 296.960938 194.558594 L 279.679688 216.191406 L 202.238281 183.039062 Z M 219.558594 161.402344 " />
</g></g></g>
</svg>