<svg xmlns="http://www.w3.org/2000/svg" width="384pt" height="384pt" viewBox="0 0 384 384" version="1.1" class="iconadda">
<g>
<g id="Membrane_free_icon_sngtAEP-0"><path style=" stroke:none;fill-rule:nonzero;fill:#f8f5f6;fill-opacity:1;" d="M 378.375 192 C 378.375 294.933594 294.933594 378.375 192 378.375 C 89.066406 378.375 5.625 294.933594 5.625 192 C 5.625 89.066406 89.066406 5.625 192 5.625 C 294.933594 5.625 378.375 89.066406 378.375 192 " />
</g><g id="Membrane_free_icon_sngtAEP-1"><path style=" stroke:none;fill-rule:nonzero;fill:#ebebec;fill-opacity:1;" d="M 378.375 192 C 378.375 294.929688 294.929688 378.375 192 378.375 C 166.203125 378.375 141.625 373.132812 119.285156 363.652344 C 137.457031 369.570312 156.855469 372.765625 177 372.765625 C 279.929688 372.765625 363.375 289.320312 363.375 186.390625 C 363.375 109.257812 316.519531 43.070312 249.714844 14.734375 C 324.394531 39.035156 378.375 109.214844 378.375 192 Z M 378.375 192 " />
</g><g id="Membrane_free_icon_sngtAEP-2"><path style=" stroke:none;fill-rule:nonzero;fill:#b2d9fe;fill-opacity:1;" d="M 190.019531 195.523438 L 67.371094 248.523438 C 63.355469 250.257812 63.355469 255.949219 67.371094 257.683594 L 190.023438 310.683594 L 190.019531 310.679688 C 191.285156 311.226562 192.714844 311.226562 193.980469 310.679688 L 316.632812 257.679688 C 320.648438 255.945312 320.648438 250.253906 316.632812 248.519531 L 193.980469 195.519531 L 193.980469 195.523438 C 192.714844 194.976562 191.285156 194.976562 190.019531 195.523438 Z M 190.019531 195.523438 " />
</g><g id="Membrane_free_icon_sngtAEP-3"><path style=" stroke:none;fill-rule:nonzero;fill:#89c8fe;fill-opacity:1;" d="M 316.632812 257.679688 L 193.980469 310.679688 C 192.714844 311.226562 191.289062 311.226562 190.019531 310.679688 L 67.367188 257.679688 C 63.355469 255.945312 63.355469 250.253906 67.367188 248.523438 L 74.890625 245.269531 L 189.789062 294.921875 C 191.054688 295.46875 192.488281 295.46875 193.75 294.921875 L 308.882812 245.171875 L 316.636719 248.523438 C 320.648438 250.257812 320.648438 255.949219 316.636719 257.679688 Z M 316.632812 257.679688 " />
</g><g id="Membrane_free_icon_sngtAEP-4"><path style=" stroke:none;fill-rule:nonzero;fill:#baf49c;fill-opacity:1;" d="M 190.019531 134.421875 L 67.371094 187.417969 C 63.355469 189.152344 63.355469 194.84375 67.371094 196.578125 L 190.023438 249.578125 L 190.019531 249.578125 C 191.285156 250.125 192.714844 250.125 193.980469 249.578125 L 316.632812 196.578125 C 320.648438 194.84375 320.648438 189.152344 316.632812 187.417969 L 193.980469 134.417969 L 193.980469 134.421875 C 192.714844 133.875 191.285156 133.875 190.019531 134.421875 Z M 190.019531 134.421875 " />
</g><g id="Membrane_free_icon_sngtAEP-5"><path style=" stroke:none;fill-rule:nonzero;fill:#9be59d;fill-opacity:1;" d="M 316.632812 196.578125 L 193.980469 249.578125 C 192.714844 250.125 191.289062 250.125 190.019531 249.578125 L 67.367188 196.578125 C 63.355469 194.84375 63.355469 189.152344 67.367188 187.421875 L 74.890625 184.167969 L 189.789062 233.820312 C 191.054688 234.367188 192.488281 234.367188 193.75 233.820312 L 308.882812 184.070312 L 316.636719 187.421875 C 320.648438 189.152344 320.648438 194.847656 316.636719 196.578125 Z M 316.632812 196.578125 " />
</g><g id="Membrane_free_icon_sngtAEP-6"><path style=" stroke:none;fill-rule:nonzero;fill:#b2d9fe;fill-opacity:1;" d="M 190.019531 73.320312 L 67.371094 126.320312 C 63.355469 128.054688 63.355469 133.746094 67.371094 135.480469 L 190.023438 188.480469 L 190.019531 188.476562 C 191.285156 189.023438 192.714844 189.023438 193.980469 188.476562 L 316.632812 135.476562 C 320.648438 133.742188 320.648438 128.050781 316.632812 126.316406 L 193.980469 73.320312 C 192.714844 72.773438 191.285156 72.773438 190.019531 73.320312 Z M 190.019531 73.320312 " />
</g><g id="Membrane_free_icon_sngtAEP-7"><path style=" stroke:none;fill-rule:nonzero;fill:#89c8fe;fill-opacity:1;" d="M 316.632812 135.476562 L 193.980469 188.476562 C 192.714844 189.023438 191.289062 189.023438 190.019531 188.476562 L 67.367188 135.476562 C 63.355469 133.742188 63.355469 128.050781 67.367188 126.320312 L 74.890625 123.066406 L 189.789062 172.71875 C 191.054688 173.265625 192.488281 173.265625 193.75 172.71875 L 308.882812 122.96875 L 316.636719 126.320312 C 320.648438 128.054688 320.648438 133.746094 316.636719 135.476562 Z M 316.632812 135.476562 " />
</g><g id="Membrane_free_icon_sngtAEP-8"><path style=" stroke:none;fill-rule:nonzero;fill:#000001;fill-opacity:1;" d="M 327.765625 56.234375 C 291.5 19.972656 243.285156 0 192 0 C 140.714844 0 92.5 19.972656 56.234375 56.234375 C 19.972656 92.5 0 140.714844 0 192 C 0 243.285156 19.972656 291.5 56.234375 327.765625 C 92.5 364.027344 140.714844 384 192 384 C 243.285156 384 291.5 364.027344 327.765625 327.765625 C 364.027344 291.5 384 243.285156 384 192 C 384 140.714844 364.027344 92.5 327.765625 56.234375 Z M 319.8125 319.808594 C 285.671875 353.949219 240.28125 372.75 192.003906 372.75 C 143.722656 372.75 98.332031 353.949219 64.195312 319.808594 C 30.050781 285.671875 11.25 240.28125 11.25 192 C 11.25 143.71875 30.050781 98.328125 64.191406 64.191406 C 98.328125 30.050781 143.71875 11.25 192 11.25 C 240.28125 11.25 285.671875 30.050781 319.808594 64.191406 C 353.949219 98.332031 372.75 143.722656 372.75 192 C 372.75 240.28125 353.949219 285.671875 319.808594 319.808594 Z M 319.8125 319.808594 " />
</g><g id="Membrane_free_icon_sngtAEP-9"><path style=" stroke:none;fill-rule:nonzero;fill:#000001;fill-opacity:1;" d="M 124.042969 190.273438 L 113.714844 185.8125 C 112.339844 185.191406 110.777344 185.152344 109.371094 185.695312 C 107.96875 186.242188 106.839844 187.324219 106.242188 188.710938 C 105.644531 190.09375 105.628906 191.65625 106.191406 193.054688 C 106.757812 194.449219 107.863281 195.558594 109.253906 196.136719 L 119.582031 200.597656 L 119.578125 200.597656 C 120.28125 200.90625 121.042969 201.0625 121.808594 201.0625 C 124.476562 201.0625 126.777344 199.191406 127.320312 196.578125 C 127.859375 193.964844 126.492188 191.332031 124.042969 190.273438 Z M 163.949219 207.519531 L 143.996094 198.898438 L 143.996094 198.894531 C 142.628906 198.304688 141.078125 198.28125 139.691406 198.828125 C 138.304688 199.378906 137.195312 200.457031 136.601562 201.828125 C 136.011719 203.195312 135.988281 204.746094 136.535156 206.132812 C 137.085938 207.519531 138.164062 208.628906 139.535156 209.222656 L 159.488281 217.84375 C 160.191406 218.148438 160.949219 218.308594 161.714844 218.308594 C 164.382812 218.308594 166.6875 216.433594 167.226562 213.824219 C 167.769531 211.210938 166.398438 208.578125 163.949219 207.519531 Z M 200.09375 216.140625 L 192 219.640625 L 183.90625 216.144531 L 183.90625 216.140625 C 182.53125 215.523438 180.964844 215.480469 179.5625 216.027344 C 178.15625 216.570312 177.03125 217.65625 176.433594 219.039062 C 175.835938 220.421875 175.816406 221.988281 176.382812 223.382812 C 176.949219 224.78125 178.050781 225.890625 179.441406 226.46875 L 189.769531 230.929688 C 191.191406 231.542969 192.808594 231.542969 194.230469 230.929688 L 204.558594 226.46875 C 207.410156 225.234375 208.722656 221.925781 207.488281 219.074219 C 206.257812 216.222656 202.945312 214.910156 200.09375 216.140625 Z M 240.003906 198.894531 L 220.050781 207.519531 C 217.601562 208.578125 216.230469 211.210938 216.773438 213.824219 C 217.3125 216.433594 219.617188 218.308594 222.285156 218.308594 C 223.027344 218.308594 223.785156 218.160156 224.511719 217.847656 L 244.464844 209.226562 L 244.464844 209.222656 C 245.851562 208.640625 246.949219 207.53125 247.511719 206.136719 C 248.074219 204.742188 248.054688 203.183594 247.457031 201.800781 C 246.863281 200.421875 245.738281 199.339844 244.335938 198.792969 C 242.9375 198.246094 241.375 198.285156 240.003906 198.894531 Z M 262.191406 201.0625 C 262.933594 201.0625 263.691406 200.914062 264.417969 200.601562 L 274.746094 196.140625 L 274.746094 196.136719 C 277.597656 194.90625 278.910156 191.59375 277.679688 188.742188 C 276.445312 185.890625 273.136719 184.578125 270.285156 185.8125 L 259.957031 190.273438 C 257.507812 191.332031 256.140625 193.964844 256.679688 196.578125 C 257.222656 199.191406 259.523438 201.0625 262.191406 201.0625 Z M 262.191406 201.0625 " />
</g><g id="Membrane_free_icon_sngtAEP-10"><path style=" stroke:none;fill-rule:nonzero;fill:#000001;fill-opacity:1;" d="M 325.265625 192 C 325.265625 187.761719 322.75 183.9375 318.863281 182.257812 L 270.710938 161.449219 L 318.863281 140.640625 L 318.859375 140.640625 C 322.75 138.964844 325.265625 135.132812 325.265625 130.898438 C 325.265625 126.664062 322.75 122.832031 318.859375 121.15625 L 196.210938 68.15625 C 193.523438 67 190.476562 67 187.789062 68.15625 L 145.410156 86.46875 C 142.558594 87.703125 141.246094 91.011719 142.476562 93.863281 C 143.707031 96.714844 147.019531 98.03125 149.871094 96.796875 L 192 78.589844 L 313.050781 130.894531 L 192 183.203125 L 70.949219 130.898438 L 125.910156 107.148438 C 128.761719 105.917969 130.074219 102.605469 128.84375 99.753906 C 127.613281 96.902344 124.300781 95.589844 121.449219 96.820312 L 65.140625 121.15625 C 61.25 122.832031 58.734375 126.664062 58.734375 130.898438 C 58.734375 135.132812 61.25 138.964844 65.140625 140.640625 L 113.292969 161.449219 L 65.140625 182.257812 C 61.25 183.9375 58.738281 187.761719 58.738281 192 C 58.738281 196.238281 61.25 200.0625 65.140625 201.742188 L 113.292969 222.550781 L 65.140625 243.359375 C 61.25 245.035156 58.734375 248.867188 58.734375 253.101562 C 58.734375 257.339844 61.246094 261.164062 65.136719 262.84375 L 187.785156 315.84375 C 189.125 316.421875 190.558594 316.710938 191.996094 316.710938 C 193.433594 316.710938 194.867188 316.421875 196.207031 315.84375 L 238.363281 297.628906 C 241.214844 296.394531 242.53125 293.085938 241.296875 290.234375 C 240.707031 288.863281 239.59375 287.785156 238.207031 287.234375 C 236.820312 286.6875 235.273438 286.710938 233.902344 287.300781 L 192 305.410156 L 70.949219 253.101562 L 127.472656 228.679688 L 187.792969 254.746094 C 189.132812 255.324219 190.566406 255.613281 192.003906 255.613281 C 193.441406 255.613281 194.875 255.324219 196.214844 254.746094 L 256.53125 228.683594 L 313.054688 253.105469 L 257.78125 276.988281 L 257.777344 276.984375 C 254.925781 278.21875 253.613281 281.527344 254.84375 284.378906 C 255.4375 285.75 256.546875 286.828125 257.933594 287.378906 C 259.320312 287.925781 260.871094 287.902344 262.238281 287.3125 L 318.859375 262.847656 C 322.75 261.167969 325.261719 257.34375 325.261719 253.105469 C 325.261719 248.867188 322.746094 245.042969 318.859375 243.363281 L 270.707031 222.554688 L 318.859375 201.746094 L 318.859375 201.742188 C 322.75 200.066406 325.265625 196.234375 325.265625 192 Z M 192 244.308594 L 70.949219 192 L 127.472656 167.578125 L 187.792969 193.644531 C 189.132812 194.222656 190.566406 194.511719 192.003906 194.511719 C 193.441406 194.511719 194.875 194.222656 196.214844 193.644531 L 256.53125 167.582031 L 313.050781 192 Z M 192 244.308594 " />
</g></g>
</svg>