<svg xmlns="http://www.w3.org/2000/svg" width="384pt" height="384pt" viewBox="0 0 384 384" version="1.1" class="iconadda">
<g>
<g id="Order_Now_free_icon_DFLPmrz-0"><path style=" stroke:none;fill-rule:nonzero;fill:#fe9750;fill-opacity:1;" d="M 143.964844 142.714844 L 16.636719 142.714844 C 11.550781 142.714844 9.003906 148.863281 12.601562 152.460938 L 71.359375 211.21875 L 214.835938 211.21875 L 148.003906 144.386719 C 146.933594 143.316406 145.480469 142.714844 143.964844 142.714844 Z M 235.996094 144.386719 L 214.835938 165.550781 L 214.835938 176.96875 L 358.3125 165.550781 L 371.402344 152.460938 C 375 148.863281 372.453125 142.714844 367.367188 142.714844 L 240.035156 142.714844 C 238.519531 142.714844 237.066406 143.316406 235.996094 144.386719 Z M 235.996094 144.386719 " />
</g><g id="Order_Now_free_icon_DFLPmrz-1"><path style=" stroke:none;fill-rule:nonzero;fill:#fe7c5a;fill-opacity:1;" d="M 214.835938 165.550781 L 169.167969 211.21875 L 312.644531 211.21875 L 358.3125 165.550781 Z M 214.835938 165.550781 " />
</g><g id="Order_Now_free_icon_DFLPmrz-2"><path style=" stroke:none;fill-rule:nonzero;fill:#fe7c5a;fill-opacity:1;" d="M 312.640625 188.382812 L 289.804688 286.191406 L 312.640625 384 L 329.769531 384 C 331.28125 384 332.734375 383.398438 333.804688 382.328125 C 334.875 381.257812 335.476562 379.804688 335.476562 378.292969 L 335.476562 188.382812 Z M 312.640625 188.382812 " />
</g><g id="Order_Now_free_icon_DFLPmrz-3"><path style=" stroke:none;fill-rule:nonzero;fill:#fe9750;fill-opacity:1;" d="M 192 188.382812 L 146.332031 286.191406 L 192 384 L 312.640625 384 L 312.640625 188.382812 Z M 192 188.382812 " />
</g><g id="Order_Now_free_icon_DFLPmrz-4"><path style=" stroke:none;fill-rule:nonzero;fill:#feb364;fill-opacity:1;" d="M 48.523438 188.382812 L 48.523438 378.292969 C 48.523438 381.445312 51.078125 384 54.230469 384 L 192 384 L 192 188.382812 Z M 48.523438 188.382812 " />
</g><g id="Order_Now_free_icon_DFLPmrz-5"><path style=" stroke:none;fill-rule:nonzero;fill:#cc3146;fill-opacity:1;" d="M 169.164062 292.660156 L 146.328125 292.660156 L 134.910156 326.910156 L 169.160156 315.492188 Z M 169.164062 292.660156 " />
</g><g id="Order_Now_free_icon_DFLPmrz-6"><path style=" stroke:none;fill-rule:nonzero;fill:#fe3d3a;fill-opacity:1;" d="M 71.359375 292.660156 L 71.359375 315.496094 L 146.332031 326.914062 L 146.332031 292.664062 Z M 71.359375 292.660156 " />
</g><g id="Order_Now_free_icon_DFLPmrz-7"><path style=" stroke:none;fill-rule:nonzero;fill:#e5faff;fill-opacity:1;" d="M 146.332031 315.496094 L 134.914062 338.332031 L 146.332031 361.167969 L 169.167969 361.167969 L 169.167969 315.5 Z M 146.332031 315.496094 " />
</g><g id="Order_Now_free_icon_DFLPmrz-8"><path style=" stroke:none;fill-rule:nonzero;fill:#fefeff;fill-opacity:1;" d="M 71.359375 315.496094 L 146.332031 315.496094 L 146.332031 361.164062 L 71.359375 361.164062 Z M 71.359375 315.496094 " />
</g><g id="Order_Now_free_icon_DFLPmrz-9"><path style=" stroke:none;fill-rule:nonzero;fill:#4a527b;fill-opacity:1;" d="M 238.433594 38.578125 L 252.765625 55.117188 C 253.847656 56.371094 255.421875 57.089844 257.082031 57.085938 C 259.316406 57.085938 261.34375 55.78125 262.273438 53.746094 C 263.199219 51.714844 262.855469 49.328125 261.390625 47.640625 L 249.308594 33.699219 C 257.039062 31.851562 262.785156 25.113281 262.785156 17.101562 C 262.785156 7.671875 254.824219 0 245.042969 0 L 232.722656 0 C 231.207031 0 229.753906 0.601562 228.683594 1.671875 C 227.613281 2.742188 227.011719 4.195312 227.011719 5.707031 L 227.011719 5.78125 C 227.015625 6.9375 227.011719 36.050781 227.011719 51.375 C 227.011719 54.53125 229.566406 57.085938 232.722656 57.085938 C 235.875 57.085938 238.429688 54.53125 238.429688 51.378906 Z M 238.433594 11.417969 L 245.042969 11.417969 C 248.472656 11.417969 251.371094 14.019531 251.371094 17.101562 C 251.371094 20.183594 248.472656 22.785156 245.042969 22.785156 C 243.578125 22.785156 240.914062 22.796875 238.433594 22.804688 Z M 125.019531 17.101562 C 125.019531 7.671875 117.058594 0 107.273438 0 L 94.953125 0 C 93.4375 0 91.988281 0.601562 90.917969 1.671875 C 89.847656 2.742188 89.246094 4.195312 89.246094 5.707031 L 89.246094 5.78125 C 89.25 6.9375 89.246094 36.050781 89.246094 51.375 C 89.246094 54.53125 91.800781 57.085938 94.953125 57.085938 C 98.105469 57.085938 100.660156 54.53125 100.660156 51.378906 L 100.660156 38.578125 L 114.992188 55.117188 L 114.996094 55.117188 C 116.078125 56.371094 117.65625 57.089844 119.3125 57.085938 C 121.546875 57.085938 123.574219 55.78125 124.503906 53.746094 C 125.429688 51.714844 125.089844 49.328125 123.625 47.640625 L 111.542969 33.699219 C 119.273438 31.851562 125.019531 25.113281 125.019531 17.101562 Z M 107.273438 22.785156 C 105.808594 22.785156 103.144531 22.796875 100.664062 22.804688 L 100.664062 11.417969 L 107.273438 11.417969 C 110.703125 11.417969 113.601562 14.019531 113.601562 17.101562 C 113.601562 20.183594 110.703125 22.785156 107.273438 22.785156 Z M 152.421875 0 L 140.242188 0 C 138.726562 0 137.277344 0.601562 136.203125 1.671875 C 135.132812 2.742188 134.53125 4.195312 134.53125 5.707031 L 134.53125 51.375 C 134.53125 54.527344 137.085938 57.082031 140.238281 57.082031 L 152.894531 57.082031 C 166.730469 56.84375 176.769531 44.859375 176.769531 28.589844 C 176.769531 11.488281 166.980469 -0.00390625 152.414062 -0.00390625 Z M 152.75 45.667969 L 145.953125 45.667969 L 145.949219 11.417969 L 152.417969 11.417969 C 161.957031 11.417969 165.359375 20.289062 165.359375 28.59375 C 165.359375 36.96875 161.460938 45.488281 152.75 45.667969 Z M 192 57.085938 L 211.789062 57.085938 C 214.941406 57.085938 217.496094 54.53125 217.496094 51.378906 C 217.496094 48.226562 214.941406 45.671875 211.789062 45.671875 L 197.707031 45.671875 L 197.707031 34.25 L 210.382812 34.25 C 213.535156 34.25 216.089844 31.695312 216.089844 28.542969 C 216.089844 25.390625 213.535156 22.835938 210.382812 22.835938 L 197.707031 22.835938 L 197.707031 11.417969 L 211.789062 11.417969 C 214.941406 11.417969 217.496094 8.863281 217.496094 5.710938 C 217.496094 2.558594 214.941406 0.00390625 211.789062 0.00390625 L 192 0.00390625 L 192 0 C 190.484375 0 189.035156 0.601562 187.964844 1.671875 C 186.890625 2.742188 186.292969 4.195312 186.292969 5.707031 L 186.292969 51.375 C 186.292969 54.527344 188.847656 57.082031 192 57.082031 Z M 51.1875 0 C 35.449219 0 22.644531 12.804688 22.644531 28.542969 C 22.644531 44.28125 35.449219 57.085938 51.1875 57.085938 C 66.925781 57.085938 79.730469 44.28125 79.730469 28.542969 C 79.730469 12.804688 66.925781 0 51.1875 0 Z M 51.1875 45.667969 C 41.746094 45.667969 34.0625 37.984375 34.0625 28.542969 C 34.0625 19.101562 41.746094 11.417969 51.1875 11.417969 C 60.628906 11.417969 68.3125 19.101562 68.3125 28.542969 C 68.3125 37.984375 60.628906 45.667969 51.1875 45.667969 Z M 51.1875 45.667969 " />
</g><g id="Order_Now_free_icon_DFLPmrz-10"><path style=" stroke:none;fill-rule:nonzero;fill:#313653;fill-opacity:1;" d="M 356.722656 68.960938 C 355.234375 68.675781 353.695312 68.996094 352.441406 69.84375 C 351.1875 70.695312 350.324219 72.007812 350.039062 73.496094 L 345.203125 98.714844 L 337.949219 73.355469 L 337.953125 73.355469 C 337.933594 73.292969 337.914062 73.226562 337.894531 73.164062 C 336.992188 70.382812 334.417969 68.507812 331.472656 68.503906 C 328.476562 68.503906 325.84375 70.480469 325.011719 73.355469 L 317.757812 98.710938 L 312.921875 73.492188 L 312.921875 73.496094 C 312.328125 70.398438 309.335938 68.367188 306.238281 68.960938 C 303.144531 69.554688 301.113281 72.546875 301.707031 75.644531 L 310.25 120.199219 L 310.253906 120.199219 C 310.898438 123.335938 313.660156 125.589844 316.863281 125.589844 C 319.78125 125.585938 322.367188 123.707031 323.273438 120.933594 C 323.292969 120.867188 323.316406 120.804688 323.332031 120.738281 L 331.480469 92.25 L 339.628906 120.738281 L 339.632812 120.738281 C 340.503906 123.757812 343.351562 125.765625 346.484375 125.578125 C 349.539062 125.40625 352.097656 123.195312 352.722656 120.128906 L 361.253906 75.644531 C 361.847656 72.546875 359.820312 69.558594 356.722656 68.960938 Z M 223.207031 68.503906 C 221.691406 68.503906 220.242188 69.105469 219.171875 70.175781 C 218.101562 71.246094 217.5 72.699219 217.5 74.210938 L 217.5 101.40625 L 196.714844 70.988281 L 196.714844 70.992188 C 195.300781 68.925781 192.707031 68.019531 190.316406 68.757812 C 187.921875 69.496094 186.292969 71.707031 186.292969 74.210938 L 186.292969 119.878906 C 186.292969 123.03125 188.847656 125.585938 192 125.585938 C 195.152344 125.585938 197.707031 123.03125 197.707031 119.878906 L 197.707031 92.683594 L 218.492188 123.101562 C 219.90625 125.167969 222.5 126.074219 224.894531 125.335938 C 227.285156 124.597656 228.914062 122.382812 228.914062 119.882812 L 228.914062 74.214844 C 228.914062 71.0625 226.359375 68.507812 223.207031 68.507812 Z M 266.972656 68.503906 C 251.234375 68.503906 238.429688 81.308594 238.429688 97.046875 C 238.429688 112.785156 251.234375 125.589844 266.972656 125.589844 C 282.710938 125.589844 295.515625 112.785156 295.515625 97.046875 C 295.515625 81.308594 282.710938 68.503906 266.972656 68.503906 Z M 266.972656 114.171875 C 257.53125 114.171875 249.847656 106.488281 249.847656 97.046875 C 249.847656 87.605469 257.53125 79.921875 266.972656 79.921875 C 276.414062 79.921875 284.097656 87.605469 284.097656 97.046875 C 284.097656 106.488281 276.414062 114.171875 266.972656 114.171875 Z M 266.972656 114.171875 " />
</g></g>
</svg>