<svg xmlns="http://www.w3.org/2000/svg" width="384pt" height="384pt" viewBox="0 0 384 384" version="1.1">
<g id="surface531408">
<g id="Purchase-Order-free-icon-0"><g id="Purchase_Order_free_icon-0"><path style=" stroke:none;fill-rule:evenodd;fill:rgb(76.862745%,53.72549%,34.509804%);fill-opacity:1;" d="M 11.34375 56.199219 C 11.34375 46.273438 19.4375 38.175781 29.363281 38.175781 L 231.820312 38.175781 C 241.746094 38.175781 249.84375 46.269531 249.84375 56.199219 L 249.84375 304.628906 C 249.84375 314.554688 241.746094 322.648438 231.820312 322.648438 L 29.367188 322.652344 C 19.441406 322.652344 11.347656 314.558594 11.347656 304.632812 Z M 11.34375 56.199219 " />
</g></g><g id="Purchase-Order-free-icon-1"><g id="Purchase_Order_free_icon-1"><path style=" stroke:none;fill-rule:evenodd;fill:rgb(89.019608%,65.490196%,43.529412%);fill-opacity:1;" d="M 11.34375 56.199219 C 11.34375 46.273438 19.4375 38.175781 29.363281 38.175781 L 224.433594 38.175781 C 224.496094 38.175781 224.554688 38.175781 224.617188 38.179688 L 224.617188 322.648438 C 224.554688 322.648438 224.496094 322.652344 224.433594 322.652344 L 29.367188 322.652344 C 19.441406 322.652344 11.347656 314.558594 11.34375 304.632812 Z M 11.34375 56.199219 " />
</g></g><g id="Purchase-Order-free-icon-2"><g id="Purchase_Order_free_icon-2"><path style=" stroke:none;fill-rule:nonzero;fill:rgb(89.019608%,94.509804%,100%);fill-opacity:1;" d="M 29.550781 56.332031 L 231.636719 56.332031 L 231.636719 304.476562 L 29.550781 304.472656 Z M 29.550781 56.332031 " />
</g></g><g id="Purchase-Order-free-icon-3"><g id="Purchase_Order_free_icon-3"><path style=" stroke:none;fill-rule:nonzero;fill:rgb(71.372549%,85.882353%,100%);fill-opacity:1;" d="M 224.621094 56.332031 L 231.636719 56.332031 L 231.636719 304.476562 L 224.621094 304.476562 Z M 224.621094 56.332031 " />
</g></g><g id="Purchase-Order-free-icon-4"><g id="Purchase_Order_free_icon-4"><path style=" stroke:none;fill-rule:evenodd;fill:rgb(0%,0%,0%);fill-opacity:1;" d="M 130.59375 34.398438 C 134.203125 34.398438 137.152344 31.453125 137.152344 27.839844 C 137.152344 24.226562 134.207031 21.28125 130.59375 21.28125 C 126.980469 21.28125 124.035156 24.226562 124.035156 27.839844 C 124.035156 31.453125 126.980469 34.398438 130.59375 34.398438 Z M 130.59375 34.398438 " />
</g></g><g id="Purchase-Order-free-icon-5"><g id="Purchase_Order_free_icon-5"><path style=" stroke:none;fill-rule:evenodd;fill:rgb(63.921569%,30.980392%,25.490196%);fill-opacity:1;" d="M 130.59375 7.410156 C 118.898438 7.410156 109.417969 16.890625 109.417969 28.585938 L 109.417969 31.496094 L 88.425781 27.824219 C 85.269531 27.273438 82.332031 28.0625 79.882812 30.125 C 77.429688 32.183594 76.144531 34.941406 76.144531 38.144531 L 76.144531 60.933594 L 185.046875 60.933594 L 185.042969 38.144531 C 185.042969 34.941406 183.757812 32.183594 181.304688 30.125 C 178.851562 28.0625 175.914062 27.273438 172.761719 27.824219 L 151.769531 31.492188 L 151.769531 28.582031 C 151.769531 16.886719 142.289062 7.40625 130.59375 7.40625 Z M 130.59375 7.410156 " />
</g></g><g id="Purchase-Order-free-icon-6"><g id="Purchase_Order_free_icon-6"><path style=" stroke:none;fill-rule:evenodd;fill:rgb(78.431373%,43.529412%,36.078431%);fill-opacity:1;" d="M 109.417969 28.585938 L 109.417969 31.496094 L 88.425781 27.828125 C 85.269531 27.277344 82.332031 28.066406 79.878906 30.128906 C 77.425781 32.191406 76.140625 34.945312 76.140625 38.148438 L 76.140625 60.9375 L 175.539062 60.929688 L 175.539062 39.804688 C 175.539062 36.601562 174.253906 33.84375 171.800781 31.785156 C 169.347656 29.722656 166.410156 28.933594 163.253906 29.484375 L 151.765625 31.492188 L 146.644531 32.386719 L 143.957031 32.855469 C 144.289062 3.617188 109.414062 7.648438 109.414062 28.582031 Z M 109.417969 28.585938 " />
</g></g><g id="Purchase-Order-free-icon-7"><g id="Purchase_Order_free_icon-7"><path style=" stroke:none;fill-rule:evenodd;fill:rgb(27.058824%,20.784314%,18.823529%);fill-opacity:1;" d="M 130.59375 34.3125 C 134.207031 34.3125 137.15625 31.363281 137.15625 27.75 C 137.15625 24.136719 134.207031 21.1875 130.59375 21.1875 C 126.980469 21.1875 124.03125 24.136719 124.03125 27.75 C 124.03125 31.363281 126.980469 34.3125 130.59375 34.3125 Z M 130.59375 34.3125 " />
</g></g><g id="Purchase-Order-free-icon-8"><g id="Purchase_Order_free_icon-8"><path style=" stroke:none;fill-rule:evenodd;fill:rgb(60.784314%,50.980392%,47.843137%);fill-opacity:1;" d="M 167.1875 267.695312 C 170.085938 267.695312 172.4375 270.046875 172.4375 272.945312 C 172.4375 275.84375 170.085938 278.195312 167.1875 278.195312 L 123.359375 278.195312 C 120.457031 278.195312 118.109375 275.84375 118.109375 272.945312 C 118.109375 270.046875 120.457031 267.695312 123.359375 267.695312 Z M 202.769531 161.941406 L 202.769531 161.945312 C 205.667969 161.945312 208.019531 164.292969 208.019531 167.195312 C 208.019531 170.09375 205.667969 172.445312 202.769531 172.445312 L 123.359375 172.445312 C 120.457031 172.445312 118.109375 170.09375 118.109375 167.195312 C 118.109375 164.292969 120.457031 161.945312 123.359375 161.945312 Z M 202.769531 135.503906 C 205.667969 135.503906 208.019531 137.855469 208.019531 140.753906 C 208.019531 143.65625 205.667969 146.003906 202.769531 146.003906 L 123.359375 146.003906 C 120.457031 146.003906 118.109375 143.65625 118.109375 140.753906 C 118.109375 137.855469 120.457031 135.503906 123.359375 135.503906 Z M 202.769531 109.066406 C 205.667969 109.066406 208.019531 111.417969 208.019531 114.316406 C 208.019531 117.214844 205.667969 119.566406 202.769531 119.566406 L 123.359375 119.566406 C 120.457031 119.566406 118.109375 117.214844 118.109375 114.316406 C 118.109375 111.417969 120.457031 109.066406 123.359375 109.066406 Z M 202.769531 82.628906 C 205.667969 82.628906 208.019531 84.980469 208.019531 87.878906 C 208.019531 90.777344 205.667969 93.128906 202.769531 93.128906 L 123.359375 93.128906 C 120.457031 93.128906 118.109375 90.777344 118.109375 87.878906 C 118.109375 84.980469 120.457031 82.628906 123.359375 82.628906 Z M 205.855469 188.382812 C 208.753906 188.382812 211.105469 190.730469 211.105469 193.632812 C 211.105469 196.53125 208.753906 198.882812 205.855469 198.882812 L 123.355469 198.882812 C 120.457031 198.882812 118.105469 196.53125 118.105469 193.632812 C 118.105469 190.730469 120.457031 188.382812 123.355469 188.382812 Z M 167.1875 241.257812 C 170.085938 241.257812 172.4375 243.609375 172.4375 246.507812 C 172.4375 249.40625 170.085938 251.757812 167.1875 251.757812 L 123.359375 251.757812 C 120.457031 251.757812 118.109375 249.40625 118.109375 246.507812 C 118.109375 243.609375 120.457031 241.257812 123.359375 241.257812 Z M 167.1875 241.257812 " />
</g></g><g id="Purchase-Order-free-icon-9"><g id="Purchase_Order_free_icon-9"><path style=" stroke:none;fill-rule:nonzero;fill:rgb(99.215686%,78.039216%,18.039216%);fill-opacity:1;" d="M 60.15625 87.058594 L 99.71875 87.058594 C 102.382812 87.058594 104.542969 89.722656 104.542969 91.882812 L 104.542969 131.445312 C 104.542969 134.109375 102.382812 136.269531 99.71875 136.269531 L 60.15625 136.269531 C 57.492188 136.269531 55.332031 133.605469 55.332031 131.445312 L 55.332031 91.882812 C 55.332031 89.21875 57.492188 87.058594 60.15625 87.058594 Z M 60.15625 87.058594 " />
</g></g><g id="Purchase-Order-free-icon-10"><g id="Purchase_Order_free_icon-10"><path style=" stroke:none;fill-rule:evenodd;fill:rgb(98.823529%,85.882353%,20.784314%);fill-opacity:1;" d="M 60.15625 87.058594 L 96.097656 87.058594 C 97.625 87.796875 98.6875 89.363281 98.6875 91.167969 L 98.6875 128.554688 C 98.6875 131.0625 96.636719 133.113281 94.128906 133.113281 L 56.742188 133.113281 C 56.347656 133.113281 55.957031 133.0625 55.578125 132.960938 C 55.414062 132.472656 55.332031 131.960938 55.332031 131.445312 L 55.332031 91.882812 C 55.332031 89.230469 57.503906 87.058594 60.15625 87.058594 Z M 60.15625 87.058594 " />
</g></g><g id="Purchase-Order-free-icon-11"><g id="Purchase_Order_free_icon-11"><path style=" stroke:none;fill-rule:evenodd;fill:rgb(100%,100%,100%);fill-opacity:1;" d="M 64.175781 112.828125 C 62.753906 110.328125 63.621094 107.148438 66.117188 105.714844 C 68.609375 104.28125 71.792969 105.132812 73.238281 107.617188 L 75.492188 111.519531 L 87.453125 99.558594 C 89.515625 97.570312 92.789062 97.597656 94.8125 99.621094 C 96.839844 101.648438 96.867188 104.921875 94.878906 106.980469 L 78.09375 123.765625 C 75.664062 126.195312 71.558594 125.632812 69.851562 122.660156 Z M 64.175781 112.828125 " />
</g></g><g id="Purchase-Order-free-icon-12"><g id="Purchase_Order_free_icon-12"><path style=" stroke:none;fill-rule:nonzero;fill:rgb(17.647059%,83.921569%,17.647059%);fill-opacity:1;" d="M 60.15625 155.808594 L 99.71875 155.808594 C 102.382812 155.808594 104.542969 158.472656 104.542969 160.632812 L 104.542969 200.195312 C 104.542969 202.859375 102.382812 205.019531 99.71875 205.019531 L 60.15625 205.019531 C 57.492188 205.019531 55.332031 202.355469 55.332031 200.195312 L 55.332031 160.632812 C 55.332031 157.96875 57.492188 155.808594 60.15625 155.808594 Z M 60.15625 155.808594 " />
</g></g><g id="Purchase-Order-free-icon-13"><g id="Purchase_Order_free_icon-13"><path style=" stroke:none;fill-rule:nonzero;fill:rgb(30.588235%,69.411765%,98.823529%);fill-opacity:1;" d="M 60.15625 224.558594 L 99.71875 224.558594 C 102.382812 224.558594 104.542969 227.222656 104.542969 229.382812 L 104.542969 268.945312 C 104.542969 271.609375 102.382812 273.769531 99.71875 273.769531 L 60.15625 273.769531 C 57.492188 273.769531 55.332031 271.105469 55.332031 268.945312 L 55.332031 229.382812 C 55.332031 226.71875 57.492188 224.558594 60.15625 224.558594 Z M 60.15625 224.558594 " />
</g></g><g id="Purchase-Order-free-icon-14"><g id="Purchase_Order_free_icon-14"><path style=" stroke:none;fill-rule:evenodd;fill:rgb(60.784314%,50.980392%,47.843137%);fill-opacity:1;" d="M 214.546875 323.53125 L 188.671875 226.960938 L 156.328125 226.960938 C 152.523438 226.960938 149.4375 223.875 149.4375 220.070312 C 149.4375 216.265625 152.523438 213.179688 156.328125 213.179688 L 193.957031 213.179688 L 193.953125 213.179688 C 197.160156 213.179688 199.945312 215.394531 200.667969 218.519531 L 208.207031 246.652344 L 365.773438 246.652344 C 366.796875 246.652344 367.808594 246.882812 368.734375 247.324219 C 372.160156 248.957031 373.625 253.082031 371.992188 256.507812 L 336.214844 331.53125 L 336.214844 331.527344 C 335.105469 334.011719 332.640625 335.609375 329.921875 335.609375 L 223.066406 335.609375 C 218.4375 335.609375 214.625 339.421875 214.625 344.050781 C 214.625 348.519531 218.621094 352.492188 223.066406 352.492188 L 300.878906 352.492188 L 300.679688 366.273438 L 223.066406 366.273438 C 210.832031 366.273438 200.84375 356.285156 200.84375 344.050781 C 200.84375 335.0625 206.296875 326.980469 214.546875 323.53125 Z M 214.546875 323.53125 " />
</g></g><g id="Purchase-Order-free-icon-15"><g id="Purchase_Order_free_icon-15"><path style=" stroke:none;fill-rule:evenodd;fill:rgb(49.019608%,40.392157%,38.039216%);fill-opacity:1;" d="M 156.324219 226.960938 C 152.519531 226.960938 149.433594 223.875 149.433594 220.070312 C 149.433594 216.265625 152.519531 213.179688 156.324219 213.179688 L 193.953125 213.179688 C 197.160156 213.179688 199.941406 215.394531 200.664062 218.519531 L 202.925781 226.960938 L 156.320312 226.960938 Z M 156.324219 226.960938 " />
</g></g><g id="Purchase-Order-free-icon-16"><g id="Purchase_Order_free_icon-16"><path style=" stroke:none;fill-rule:nonzero;fill:rgb(27.058824%,20.784314%,18.823529%);fill-opacity:1;" d="M 259.171875 359.53125 C 259.171875 368.953125 251.53125 376.589844 242.109375 376.589844 C 232.691406 376.589844 225.050781 368.953125 225.050781 359.53125 C 225.050781 350.113281 232.691406 342.472656 242.109375 342.472656 C 251.53125 342.472656 259.171875 350.113281 259.171875 359.53125 " />
</g></g><g id="Purchase-Order-free-icon-17"><g id="Purchase_Order_free_icon-17"><path style=" stroke:none;fill-rule:nonzero;fill:rgb(27.058824%,20.784314%,18.823529%);fill-opacity:1;" d="M 327.929688 359.53125 C 327.929688 368.953125 320.292969 376.589844 310.871094 376.589844 C 301.449219 376.589844 293.8125 368.953125 293.8125 359.53125 C 293.8125 350.113281 301.449219 342.472656 310.871094 342.472656 C 320.292969 342.472656 327.929688 350.113281 327.929688 359.53125 " />
</g></g><g id="Purchase-Order-free-icon-18"><g id="Purchase_Order_free_icon-18"><path style=" stroke:none;fill-rule:evenodd;fill:rgb(100%,100%,100%);fill-opacity:1;" d="M 211.898438 260.429688 L 228.351562 321.828125 L 325.578125 321.828125 L 354.855469 260.429688 Z M 211.898438 260.429688 " />
</g></g><g id="Purchase-Order-free-icon-19"><g id="Purchase_Order_free_icon-19"><path style=" stroke:none;fill-rule:evenodd;fill:rgb(60.784314%,50.980392%,47.843137%);fill-opacity:1;" d="M 345.835938 296.378906 L 320.519531 296.378906 L 313.105469 324.308594 L 302.265625 324.308594 L 309.679688 296.378906 L 296.625 296.378906 L 294.316406 324.308594 L 283.785156 324.308594 L 286.09375 296.378906 L 273.121094 296.378906 L 275.429688 324.308594 L 264.898438 324.308594 L 262.589844 296.378906 L 249.894531 296.378906 L 254.753906 324.308594 L 244.113281 324.308594 L 239.253906 296.378906 L 214.269531 296.378906 L 214.269531 285.878906 L 237.429688 285.878906 L 232.722656 258.835938 L 243.363281 258.835938 L 248.070312 285.878906 L 261.726562 285.878906 L 259.492188 258.835938 L 270.023438 258.835938 L 272.257812 285.878906 L 286.964844 285.878906 L 289.199219 258.835938 L 299.730469 258.835938 L 297.496094 285.878906 L 312.46875 285.878906 L 319.644531 258.835938 L 330.484375 258.835938 L 323.308594 285.878906 L 345.839844 285.878906 Z M 345.835938 296.378906 " />
</g></g><g id="Purchase-Order-free-icon-20"><g id="Purchase_Order_free_icon-20"><path style=" stroke:none;fill-rule:evenodd;fill:rgb(26.27451%,94.117647%,26.27451%);fill-opacity:1;" d="M 60.15625 155.808594 L 96.097656 155.808594 C 97.625 156.546875 98.6875 158.113281 98.6875 159.917969 L 98.6875 197.304688 C 98.6875 199.8125 96.636719 201.863281 94.128906 201.863281 L 56.742188 201.863281 C 56.347656 201.863281 55.957031 201.8125 55.578125 201.710938 C 55.414062 201.222656 55.332031 200.710938 55.332031 200.195312 L 55.332031 160.632812 C 55.332031 157.980469 57.503906 155.808594 60.15625 155.808594 Z M 60.15625 155.808594 " />
</g></g><g id="Purchase-Order-free-icon-21"><g id="Purchase_Order_free_icon-21"><path style=" stroke:none;fill-rule:evenodd;fill:rgb(52.156863%,79.215686%,100%);fill-opacity:1;" d="M 60.15625 224.558594 L 96.097656 224.558594 C 97.625 225.296875 98.6875 226.863281 98.6875 228.667969 L 98.6875 266.054688 C 98.6875 268.5625 96.636719 270.613281 94.128906 270.613281 L 56.742188 270.613281 C 56.347656 270.613281 55.957031 270.5625 55.578125 270.460938 C 55.414062 269.972656 55.332031 269.460938 55.332031 268.945312 L 55.332031 229.382812 C 55.332031 226.730469 57.503906 224.558594 60.15625 224.558594 Z M 60.15625 224.558594 " />
</g></g><g id="Purchase-Order-free-icon-22"><g id="Purchase_Order_free_icon-22"><path style=" stroke:none;fill-rule:evenodd;fill:rgb(100%,100%,100%);fill-opacity:1;" d="M 64.164062 181.585938 C 62.746094 179.085938 63.613281 175.90625 66.105469 174.472656 C 68.601562 173.042969 71.78125 173.890625 73.230469 176.378906 L 75.484375 180.28125 L 87.445312 168.320312 L 87.441406 168.316406 C 89.503906 166.328125 92.777344 166.355469 94.804688 168.382812 C 96.828125 170.40625 96.855469 173.679688 94.867188 175.742188 L 78.082031 192.527344 C 75.652344 194.957031 71.546875 194.394531 69.839844 191.421875 Z M 64.164062 250.339844 C 62.746094 247.835938 63.613281 244.65625 66.105469 243.222656 C 68.601562 241.792969 71.78125 242.640625 73.230469 245.128906 L 75.484375 249.03125 L 87.445312 237.070312 L 87.441406 237.066406 C 89.503906 235.078125 92.777344 235.105469 94.804688 237.132812 C 96.828125 239.15625 96.855469 242.429688 94.867188 244.492188 L 78.082031 261.277344 C 75.652344 263.707031 71.546875 263.144531 69.839844 260.171875 Z M 64.164062 250.339844 " />
</g></g><g id="Purchase-Order-free-icon-23"><g id="Purchase_Order_free_icon-23"><path style=" stroke:none;fill-rule:nonzero;fill:rgb(100%,100%,100%);fill-opacity:1;" d="M 249.15625 359.53125 C 249.15625 363.421875 246 366.574219 242.109375 366.574219 C 238.222656 366.574219 235.066406 363.421875 235.066406 359.53125 C 235.066406 355.644531 238.222656 352.488281 242.109375 352.488281 C 246 352.488281 249.15625 355.644531 249.15625 359.53125 " />
</g></g><g id="Purchase-Order-free-icon-24"><g id="Purchase_Order_free_icon-24"><path style=" stroke:none;fill-rule:nonzero;fill:rgb(100%,100%,100%);fill-opacity:1;" d="M 317.914062 359.53125 C 317.914062 363.421875 314.761719 366.574219 310.871094 366.574219 C 306.980469 366.574219 303.828125 363.421875 303.828125 359.53125 C 303.828125 355.644531 306.980469 352.488281 310.871094 352.488281 C 314.761719 352.488281 317.914062 355.644531 317.914062 359.53125 " />
</g></g></g>
</svg>