<svg xmlns="http://www.w3.org/2000/svg" width="384pt" height="384pt" viewBox="0 0 384 384" version="1.1">
<g id="surface531468">
<g id="Unpacking-free-icon-0"><g id="Unpacking_free_icon_oI27QfV-0"><path style=" stroke:none;fill-rule:evenodd;fill:rgb(78.431373%,43.529412%,36.078431%);fill-opacity:1;" d="M 192 143.921875 L 311.300781 182.28125 L 192 228.0625 L 72.699219 182.277344 Z M 192 143.921875 " />
</g></g><g id="Unpacking-free-icon-1"><g id="Unpacking_free_icon_oI27QfV-1"><path style=" stroke:none;fill-rule:evenodd;fill:rgb(63.921569%,30.980392%,25.490196%);fill-opacity:1;" d="M 192 143.921875 L 311.300781 182.28125 L 192 228.0625 Z M 192 143.921875 " />
</g></g><g id="Unpacking-free-icon-2"><g id="Unpacking_free_icon_oI27QfV-2"><path style=" stroke:none;fill-rule:evenodd;fill:rgb(100%,80.784314%,75.294118%);fill-opacity:1;" d="M 192 375.714844 L 311.300781 320.035156 L 311.300781 182.277344 L 192 228.0625 L 72.699219 182.277344 L 72.699219 320.03125 Z M 192 375.714844 " />
</g></g><g id="Unpacking-free-icon-3"><g id="Unpacking_free_icon_oI27QfV-3"><path style=" stroke:none;fill-rule:evenodd;fill:rgb(99.215686%,69.019608%,62.745098%);fill-opacity:1;" d="M 192 228.0625 L 311.300781 182.277344 L 311.300781 320.03125 L 192 375.714844 Z M 192 228.0625 " />
</g></g><g id="Unpacking-free-icon-4"><g id="Unpacking_free_icon_oI27QfV-4"><path style=" stroke:none;fill-rule:evenodd;fill:rgb(94.901961%,60%,53.333333%);fill-opacity:1;" d="M 192 228.0625 L 209.042969 286.949219 L 311.296875 241.675781 L 311.296875 196.570312 L 310.480469 194.917969 Z M 192 228.0625 " />
</g></g><g id="Unpacking-free-icon-5"><g id="Unpacking_free_icon_oI27QfV-5"><path style=" stroke:none;fill-rule:evenodd;fill:rgb(100%,80.784314%,75.294118%);fill-opacity:1;" d="M 192 228.0625 L 217.050781 271.128906 L 330.375 220.949219 L 311.300781 182.277344 Z M 192 228.0625 " />
</g></g><g id="Unpacking-free-icon-6"><g id="Unpacking_free_icon_oI27QfV-6"><path style=" stroke:none;fill-rule:evenodd;fill:rgb(94.901961%,60%,53.333333%);fill-opacity:1;" d="M 192 228.0625 L 174.957031 286.949219 L 72.703125 241.675781 L 72.703125 196.570312 L 73.519531 194.917969 Z M 192 228.0625 " />
</g></g><g id="Unpacking-free-icon-7"><g id="Unpacking_free_icon_oI27QfV-7"><path style=" stroke:none;fill-rule:evenodd;fill:rgb(100%,80.784314%,75.294118%);fill-opacity:1;" d="M 192 228.0625 L 166.949219 271.128906 L 53.625 220.949219 L 72.699219 182.277344 Z M 192 228.0625 " />
</g></g><g id="Unpacking-free-icon-8"><g id="Unpacking_free_icon_oI27QfV-8"><path style=" stroke:none;fill-rule:evenodd;fill:rgb(16.470588%,57.647059%,98.823529%);fill-opacity:1;" d="M 192 30.289062 L 273.148438 56.382812 L 192 87.523438 L 110.851562 56.382812 Z M 192 30.289062 " />
</g></g><g id="Unpacking-free-icon-9"><g id="Unpacking_free_icon_oI27QfV-9"><path style=" stroke:none;fill-rule:evenodd;fill:rgb(0%,38.431373%,85.098039%);fill-opacity:1;" d="M 192 30.289062 L 273.148438 56.382812 L 192 87.523438 Z M 192 30.289062 " />
</g></g><g id="Unpacking-free-icon-10"><g id="Unpacking_free_icon_oI27QfV-10"><path style=" stroke:none;fill-rule:evenodd;fill:rgb(52.156863%,79.215686%,100%);fill-opacity:1;" d="M 192 187.960938 L 273.148438 150.085938 L 273.148438 56.382812 L 192 87.523438 L 110.851562 56.382812 L 110.851562 150.085938 Z M 192 187.960938 " />
</g></g><g id="Unpacking-free-icon-11"><g id="Unpacking_free_icon_oI27QfV-11"><path style=" stroke:none;fill-rule:evenodd;fill:rgb(30.588235%,69.411765%,98.823529%);fill-opacity:1;" d="M 192 87.523438 L 273.148438 56.378906 L 273.148438 150.082031 L 192 187.960938 Z M 192 87.523438 " />
</g></g><g id="Unpacking-free-icon-12"><g id="Unpacking_free_icon_oI27QfV-12"><path style=" stroke:none;fill-rule:evenodd;fill:rgb(71.372549%,85.882353%,100%);fill-opacity:1;" d="M 192 30.289062 L 204.800781 8.285156 L 286.125 30.078125 L 273.148438 56.382812 Z M 192 30.289062 L 179.199219 8.285156 L 97.875 30.078125 L 110.851562 56.382812 Z M 192 30.289062 " />
</g></g><g id="Unpacking-free-icon-13"><g id="Unpacking_free_icon_oI27QfV-13"><path style=" stroke:none;fill-rule:evenodd;fill:rgb(16.470588%,57.647059%,98.823529%);fill-opacity:1;" d="M 192 87.523438 L 203.59375 127.578125 L 273.148438 96.78125 L 273.148438 66.101562 L 272.59375 64.976562 Z M 192 87.523438 " />
</g></g><g id="Unpacking-free-icon-14"><g id="Unpacking_free_icon_oI27QfV-14"><path style=" stroke:none;fill-rule:evenodd;fill:rgb(71.372549%,85.882353%,100%);fill-opacity:1;" d="M 192 87.523438 L 209.039062 116.816406 L 286.125 82.683594 L 273.148438 56.378906 Z M 192 87.523438 " />
</g></g><g id="Unpacking-free-icon-15"><g id="Unpacking_free_icon_oI27QfV-15"><path style=" stroke:none;fill-rule:evenodd;fill:rgb(16.470588%,57.647059%,98.823529%);fill-opacity:1;" d="M 192 87.523438 L 180.40625 127.578125 L 110.851562 96.78125 L 110.851562 66.101562 L 111.40625 64.976562 Z M 192 87.523438 " />
</g></g><g id="Unpacking-free-icon-16"><g id="Unpacking_free_icon_oI27QfV-16"><path style=" stroke:none;fill-rule:evenodd;fill:rgb(71.372549%,85.882353%,100%);fill-opacity:1;" d="M 192 87.523438 L 174.960938 116.816406 L 97.875 82.683594 L 110.851562 56.378906 Z M 192 87.523438 " />
</g></g></g>
</svg>