<svg xmlns="http://www.w3.org/2000/svg" width="384pt" height="384pt" viewBox="0 0 384 384" version="1.1" class="iconadda">
<g>
<g id="Workflow_free_icon_1qx1zxD-0"><path style=" stroke:none;fill-rule:nonzero;fill:#37494a;fill-opacity:1;" d="M 102 113.25 L 147 113.25 L 147 135.75 L 102 135.75 Z M 102 113.25 " />
</g><g id="Workflow_free_icon_1qx1zxD-1"><path style=" stroke:none;fill-rule:nonzero;fill:#283839;fill-opacity:1;" d="M 338.25 214.5 L 315.75 214.5 L 315.75 135.75 L 237 135.75 L 237 113.25 L 338.25 113.25 Z M 237 225.75 L 282 225.75 L 282 248.25 L 237 248.25 Z M 237 225.75 " />
</g><g id="Workflow_free_icon_1qx1zxD-2"><path style=" stroke:none;fill-rule:nonzero;fill:#37494a;fill-opacity:1;" d="M 192 45.75 L 180.75 45.75 L 180.75 339 L 203.25 339 L 203.25 45.75 Z M 192 45.75 " />
</g><g id="Workflow_free_icon_1qx1zxD-3"><path style=" stroke:none;fill-rule:nonzero;fill:#283839;fill-opacity:1;" d="M 192 45.75 L 203.25 45.75 L 203.25 339 L 192 339 Z M 192 45.75 " />
</g><g id="Workflow_free_icon_1qx1zxD-4"><path style=" stroke:none;fill-rule:nonzero;fill:#69a9ff;fill-opacity:1;" d="M 384 270.75 L 270.75 270.75 L 270.75 203.25 L 384 203.25 Z M 384 270.75 " />
</g><g id="Workflow_free_icon_1qx1zxD-5"><path style=" stroke:none;fill-rule:nonzero;fill:#7ed7f6;fill-opacity:1;" d="M 113.25 158.25 L 0 158.25 L 0 90.75 L 113.25 90.75 Z M 113.25 158.25 " />
</g><g id="Workflow_free_icon_1qx1zxD-6"><path style=" stroke:none;fill-rule:nonzero;fill:#feed9a;fill-opacity:1;" d="M 169.5 68.25 L 214.5 68.25 C 233.109375 68.25 248.25 53.109375 248.25 34.5 C 248.25 15.890625 233.109375 0 214.5 0 L 169.5 0 C 150.890625 0 135.75 15.890625 135.75 34.5 C 135.75 53.109375 150.890625 68.25 169.5 68.25 Z M 214.5 316.5 L 169.5 316.5 C 150.890625 316.5 135.75 331.640625 135.75 350.25 C 135.75 368.859375 150.890625 384 169.5 384 L 214.5 384 C 233.109375 384 248.25 368.859375 248.25 350.25 C 248.25 331.640625 233.109375 316.5 214.5 316.5 Z M 214.5 316.5 " />
</g><g id="Workflow_free_icon_1qx1zxD-7"><path style=" stroke:none;fill-rule:nonzero;fill:#fedd34;fill-opacity:1;" d="M 248.25 34.5 C 248.25 15.890625 233.109375 0 214.5 0 L 192 0 L 192 68.25 L 214.5 68.25 C 233.109375 68.25 248.25 53.109375 248.25 34.5 Z M 248.25 350.25 C 248.25 331.640625 233.109375 316.5 214.5 316.5 L 192 316.5 L 192 384 L 214.5 384 C 233.109375 384 248.25 368.859375 248.25 350.25 Z M 248.25 350.25 " />
</g><g id="Workflow_free_icon_1qx1zxD-8"><path style=" stroke:none;fill-rule:nonzero;fill:#7ed7f6;fill-opacity:1;" d="M 192 90.75 L 135.75 90.75 L 135.75 158.25 L 248.25 158.25 L 248.25 90.75 Z M 192 90.75 " />
</g><g id="Workflow_free_icon_1qx1zxD-9"><path style=" stroke:none;fill-rule:nonzero;fill:#69a9ff;fill-opacity:1;" d="M 192 90.75 L 248.25 90.75 L 248.25 158.25 L 192 158.25 Z M 192 90.75 " />
</g><g id="Workflow_free_icon_1qx1zxD-10"><path style=" stroke:none;fill-rule:nonzero;fill:#fe874d;fill-opacity:1;" d="M 131.054688 236.996094 L 191.953125 176.097656 L 252.851562 236.996094 L 191.953125 297.894531 Z M 131.054688 236.996094 " />
</g><g id="Workflow_free_icon_1qx1zxD-11"><path style=" stroke:none;fill-rule:nonzero;fill:#fe4c4d;fill-opacity:1;" d="M 192 176.089844 L 192 297.90625 L 252.910156 237 Z M 192 176.089844 " />
</g></g>
</svg>