<svg id="Layer_1" data-name="Layer 1" xmlns="http://www.w3.org/2000/svg" viewBox="0 0 512 512"><defs><style>.cls-1{fill:#757889;}.cls-2{opacity:0.2;}.cls-3{fill:#fff;}.cls-4{fill:#606472;}.cls-5{fill:#ffb85a;}</style></defs><title>gate-flat</title><rect class="cls-1" x="19.2" y="96" width="89.6" height="384" rx="12.8" ry="12.8"/><rect class="cls-1" x="403.2" y="96" width="89.6" height="384" rx="12.8" ry="12.8"/><g class="cls-2"><path class="cls-3" d="M32,96a12.84,12.84,0,0,0-12.8,12.8V467.2A12.84,12.84,0,0,0,32,480H64V96Zm384,0a12.84,12.84,0,0,0-12.8,12.8V467.2A12.84,12.84,0,0,0,416,480h32V96Z"/></g><path class="cls-4" d="M115.2,121.6H12.8a12.8,12.8,0,0,1,0-25.6H115.2a12.8,12.8,0,0,1,0,25.6Z"/><path class="cls-4" d="M64,32a44.8,44.8,0,1,0,44.8,44.8A44.85,44.85,0,0,0,64,32Z"/><path class="cls-4" d="M448,32a44.8,44.8,0,1,0,44.8,44.8A44.85,44.85,0,0,0,448,32Z"/><path class="cls-4" d="M499.2,121.6H396.8a12.8,12.8,0,0,1,0-25.6H499.2a12.8,12.8,0,1,1,0,25.6Z"/><rect class="cls-5" x="217.6" y="275.2" width="76.8" height="19.2"/><path class="cls-4" d="M403.2,172.8V147.2h-32V121.6a12.8,12.8,0,0,0-25.6,0v18.17a229.33,229.33,0,0,0-25.6-9V96a12.8,12.8,0,0,0-25.6,0v28.88a231.46,231.46,0,0,0-25.6-2.9V76.8a12.8,12.8,0,0,0-25.6,0V122a231.46,231.46,0,0,0-25.6,2.9V96A12.8,12.8,0,1,0,192,96v34.72a229.31,229.31,0,0,0-25.6,9V121.6a12.8,12.8,0,0,0-25.6,0v25.6h-32v25.6h32V192h-32v25.6h32V384h-32v25.6h32v19.2h-32v25.6H403.2V428.8h-32V409.6h32V384h-32V217.6h32V192h-32V172.8ZM192,428.8H166.4V409.6H192Zm0-179.2V384H166.4V212.68A202.44,202.44,0,0,1,192,202.28Zm0-74.08a229.31,229.31,0,0,0-25.6,9V167.88A202.44,202.44,0,0,1,192,157.48Zm25.6-24.67a205.88,205.88,0,0,1,25.6-3.25v19.17a231.46,231.46,0,0,0-25.6,2.9Zm0,44.8a205.88,205.88,0,0,1,25.6-3.25V249.6H217.6ZM243.2,428.8H217.6V409.6h25.6Zm0-44.8H217.6V320h25.6Zm51.2,44.8H268.8V409.6h25.6Zm0-44.8H268.8V320h25.6Zm0-89.6H217.6V275.2h76.8Zm0-44.8H268.8V192.41a206.13,206.13,0,0,1,25.6,3.25Zm0-79.92a231.46,231.46,0,0,0-25.6-2.9V147.61a206.13,206.13,0,0,1,25.6,3.25ZM345.6,428.8H320V409.6h25.6Zm0-44.8H320V202.29a202.35,202.35,0,0,1,25.6,10.39Zm0-199.43a229.33,229.33,0,0,0-25.6-9v-18a202.35,202.35,0,0,1,25.6,10.39Z"/></svg>